<?xml version="1.0" encoding="utf-8" standalone="no"?>
<!DOCTYPE svg PUBLIC "-//W3C//DTD SVG 1.1//EN"
  "http://www.w3.org/Graphics/SVG/1.1/DTD/svg11.dtd">
<!-- Created with matplotlib (https://matplotlib.org/) -->
<svg height="288pt" version="1.1" viewBox="0 0 432 288" width="432pt" xmlns="http://www.w3.org/2000/svg" xmlns:xlink="http://www.w3.org/1999/xlink">
 <defs>
  <style type="text/css">
*{stroke-linecap:butt;stroke-linejoin:round;}
  </style>
 </defs>
 <g id="figure_1">
  <g id="patch_1">
   <path d="M 0 288 
L 432 288 
L 432 0 
L 0 0 
z
" style="fill:#ffffff;"/>
  </g>
  <g id="axes_1">
   <g id="patch_2">
    <path d="M 54 252 
L 388.8 252 
L 388.8 34.56 
L 54 34.56 
z
" style="fill:#ffffff;"/>
   </g>
   <g id="matplotlib.axis_1">
    <g id="xtick_1">
     <g id="line2d_1">
      <defs>
       <path d="M 0 0 
L 0 3.5 
" id="m5283865d52" style="stroke:#000000;stroke-width:0.8;"/>
      </defs>
      <g>
       <use style="stroke:#000000;stroke-width:0.8;" x="69.218182" xlink:href="#m5283865d52" y="252"/>
      </g>
     </g>
     <g id="text_1">
      <!-- 0 -->
      <defs>
       <path d="M 31.78125 66.40625 
Q 24.171875 66.40625 20.328125 58.90625 
Q 16.5 51.421875 16.5 36.375 
Q 16.5 21.390625 20.328125 13.890625 
Q 24.171875 6.390625 31.78125 6.390625 
Q 39.453125 6.390625 43.28125 13.890625 
Q 47.125 21.390625 47.125 36.375 
Q 47.125 51.421875 43.28125 58.90625 
Q 39.453125 66.40625 31.78125 66.40625 
z
M 31.78125 74.21875 
Q 44.046875 74.21875 50.515625 64.515625 
Q 56.984375 54.828125 56.984375 36.375 
Q 56.984375 17.96875 50.515625 8.265625 
Q 44.046875 -1.421875 31.78125 -1.421875 
Q 19.53125 -1.421875 13.0625 8.265625 
Q 6.59375 17.96875 6.59375 36.375 
Q 6.59375 54.828125 13.0625 64.515625 
Q 19.53125 74.21875 31.78125 74.21875 
z
" id="DejaVuSans-48"/>
      </defs>
      <g transform="translate(66.036932 266.598437)scale(0.1 -0.1)">
       <use xlink:href="#DejaVuSans-48"/>
      </g>
     </g>
    </g>
    <g id="xtick_2">
     <g id="line2d_2">
      <g>
       <use style="stroke:#000000;stroke-width:0.8;" x="120.115111" xlink:href="#m5283865d52" y="252"/>
      </g>
     </g>
     <g id="text_2">
      <!-- 50 -->
      <defs>
       <path d="M 10.796875 72.90625 
L 49.515625 72.90625 
L 49.515625 64.59375 
L 19.828125 64.59375 
L 19.828125 46.734375 
Q 21.96875 47.46875 24.109375 47.828125 
Q 26.265625 48.1875 28.421875 48.1875 
Q 40.625 48.1875 47.75 41.5 
Q 54.890625 34.8125 54.890625 23.390625 
Q 54.890625 11.625 47.5625 5.09375 
Q 40.234375 -1.421875 26.90625 -1.421875 
Q 22.3125 -1.421875 17.546875 -0.640625 
Q 12.796875 0.140625 7.71875 1.703125 
L 7.71875 11.625 
Q 12.109375 9.234375 16.796875 8.0625 
Q 21.484375 6.890625 26.703125 6.890625 
Q 35.15625 6.890625 40.078125 11.328125 
Q 45.015625 15.765625 45.015625 23.390625 
Q 45.015625 31 40.078125 35.4375 
Q 35.15625 39.890625 26.703125 39.890625 
Q 22.75 39.890625 18.8125 39.015625 
Q 14.890625 38.140625 10.796875 36.28125 
z
" id="DejaVuSans-53"/>
      </defs>
      <g transform="translate(113.752611 266.598437)scale(0.1 -0.1)">
       <use xlink:href="#DejaVuSans-53"/>
       <use x="63.623047" xlink:href="#DejaVuSans-48"/>
      </g>
     </g>
    </g>
    <g id="xtick_3">
     <g id="line2d_3">
      <g>
       <use style="stroke:#000000;stroke-width:0.8;" x="171.01204" xlink:href="#m5283865d52" y="252"/>
      </g>
     </g>
     <g id="text_3">
      <!-- 100 -->
      <defs>
       <path d="M 12.40625 8.296875 
L 28.515625 8.296875 
L 28.515625 63.921875 
L 10.984375 60.40625 
L 10.984375 69.390625 
L 28.421875 72.90625 
L 38.28125 72.90625 
L 38.28125 8.296875 
L 54.390625 8.296875 
L 54.390625 0 
L 12.40625 0 
z
" id="DejaVuSans-49"/>
      </defs>
      <g transform="translate(161.46829 266.598437)scale(0.1 -0.1)">
       <use xlink:href="#DejaVuSans-49"/>
       <use x="63.623047" xlink:href="#DejaVuSans-48"/>
       <use x="127.246094" xlink:href="#DejaVuSans-48"/>
      </g>
     </g>
    </g>
    <g id="xtick_4">
     <g id="line2d_4">
      <g>
       <use style="stroke:#000000;stroke-width:0.8;" x="221.908969" xlink:href="#m5283865d52" y="252"/>
      </g>
     </g>
     <g id="text_4">
      <!-- 150 -->
      <g transform="translate(212.365219 266.598437)scale(0.1 -0.1)">
       <use xlink:href="#DejaVuSans-49"/>
       <use x="63.623047" xlink:href="#DejaVuSans-53"/>
       <use x="127.246094" xlink:href="#DejaVuSans-48"/>
      </g>
     </g>
    </g>
    <g id="xtick_5">
     <g id="line2d_5">
      <g>
       <use style="stroke:#000000;stroke-width:0.8;" x="272.805898" xlink:href="#m5283865d52" y="252"/>
      </g>
     </g>
     <g id="text_5">
      <!-- 200 -->
      <defs>
       <path d="M 19.1875 8.296875 
L 53.609375 8.296875 
L 53.609375 0 
L 7.328125 0 
L 7.328125 8.296875 
Q 12.9375 14.109375 22.625 23.890625 
Q 32.328125 33.6875 34.8125 36.53125 
Q 39.546875 41.84375 41.421875 45.53125 
Q 43.3125 49.21875 43.3125 52.78125 
Q 43.3125 58.59375 39.234375 62.25 
Q 35.15625 65.921875 28.609375 65.921875 
Q 23.96875 65.921875 18.8125 64.3125 
Q 13.671875 62.703125 7.8125 59.421875 
L 7.8125 69.390625 
Q 13.765625 71.78125 18.9375 73 
Q 24.125 74.21875 28.421875 74.21875 
Q 39.75 74.21875 46.484375 68.546875 
Q 53.21875 62.890625 53.21875 53.421875 
Q 53.21875 48.921875 51.53125 44.890625 
Q 49.859375 40.875 45.40625 35.40625 
Q 44.1875 33.984375 37.640625 27.21875 
Q 31.109375 20.453125 19.1875 8.296875 
z
" id="DejaVuSans-50"/>
      </defs>
      <g transform="translate(263.262148 266.598437)scale(0.1 -0.1)">
       <use xlink:href="#DejaVuSans-50"/>
       <use x="63.623047" xlink:href="#DejaVuSans-48"/>
       <use x="127.246094" xlink:href="#DejaVuSans-48"/>
      </g>
     </g>
    </g>
    <g id="xtick_6">
     <g id="line2d_6">
      <g>
       <use style="stroke:#000000;stroke-width:0.8;" x="323.702828" xlink:href="#m5283865d52" y="252"/>
      </g>
     </g>
     <g id="text_6">
      <!-- 250 -->
      <g transform="translate(314.159078 266.598437)scale(0.1 -0.1)">
       <use xlink:href="#DejaVuSans-50"/>
       <use x="63.623047" xlink:href="#DejaVuSans-53"/>
       <use x="127.246094" xlink:href="#DejaVuSans-48"/>
      </g>
     </g>
    </g>
    <g id="xtick_7">
     <g id="line2d_7">
      <g>
       <use style="stroke:#000000;stroke-width:0.8;" x="374.599757" xlink:href="#m5283865d52" y="252"/>
      </g>
     </g>
     <g id="text_7">
      <!-- 300 -->
      <defs>
       <path d="M 40.578125 39.3125 
Q 47.65625 37.796875 51.625 33 
Q 55.609375 28.21875 55.609375 21.1875 
Q 55.609375 10.40625 48.1875 4.484375 
Q 40.765625 -1.421875 27.09375 -1.421875 
Q 22.515625 -1.421875 17.65625 -0.515625 
Q 12.796875 0.390625 7.625 2.203125 
L 7.625 11.71875 
Q 11.71875 9.328125 16.59375 8.109375 
Q 21.484375 6.890625 26.8125 6.890625 
Q 36.078125 6.890625 40.9375 10.546875 
Q 45.796875 14.203125 45.796875 21.1875 
Q 45.796875 27.640625 41.28125 31.265625 
Q 36.765625 34.90625 28.71875 34.90625 
L 20.21875 34.90625 
L 20.21875 43.015625 
L 29.109375 43.015625 
Q 36.375 43.015625 40.234375 45.921875 
Q 44.09375 48.828125 44.09375 54.296875 
Q 44.09375 59.90625 40.109375 62.90625 
Q 36.140625 65.921875 28.71875 65.921875 
Q 24.65625 65.921875 20.015625 65.03125 
Q 15.375 64.15625 9.8125 62.3125 
L 9.8125 71.09375 
Q 15.4375 72.65625 20.34375 73.4375 
Q 25.25 74.21875 29.59375 74.21875 
Q 40.828125 74.21875 47.359375 69.109375 
Q 53.90625 64.015625 53.90625 55.328125 
Q 53.90625 49.265625 50.4375 45.09375 
Q 46.96875 40.921875 40.578125 39.3125 
z
" id="DejaVuSans-51"/>
      </defs>
      <g transform="translate(365.056007 266.598437)scale(0.1 -0.1)">
       <use xlink:href="#DejaVuSans-51"/>
       <use x="63.623047" xlink:href="#DejaVuSans-48"/>
       <use x="127.246094" xlink:href="#DejaVuSans-48"/>
      </g>
     </g>
    </g>
   </g>
   <g id="matplotlib.axis_2">
    <g id="ytick_1">
     <g id="line2d_8">
      <defs>
       <path d="M 0 0 
L -3.5 0 
" id="m980c7fd7d0" style="stroke:#000000;stroke-width:0.8;"/>
      </defs>
      <g>
       <use style="stroke:#000000;stroke-width:0.8;" x="54" xlink:href="#m980c7fd7d0" y="244.320892"/>
      </g>
     </g>
     <g id="text_8">
      <!-- 0 -->
      <g transform="translate(40.6375 248.120111)scale(0.1 -0.1)">
       <use xlink:href="#DejaVuSans-48"/>
      </g>
     </g>
    </g>
    <g id="ytick_2">
     <g id="line2d_9">
      <g>
       <use style="stroke:#000000;stroke-width:0.8;" x="54" xlink:href="#m980c7fd7d0" y="207.57875"/>
      </g>
     </g>
     <g id="text_9">
      <!-- 50 -->
      <g transform="translate(34.275 211.377968)scale(0.1 -0.1)">
       <use xlink:href="#DejaVuSans-53"/>
       <use x="63.623047" xlink:href="#DejaVuSans-48"/>
      </g>
     </g>
    </g>
    <g id="ytick_3">
     <g id="line2d_10">
      <g>
       <use style="stroke:#000000;stroke-width:0.8;" x="54" xlink:href="#m980c7fd7d0" y="170.836607"/>
      </g>
     </g>
     <g id="text_10">
      <!-- 100 -->
      <g transform="translate(27.9125 174.635826)scale(0.1 -0.1)">
       <use xlink:href="#DejaVuSans-49"/>
       <use x="63.623047" xlink:href="#DejaVuSans-48"/>
       <use x="127.246094" xlink:href="#DejaVuSans-48"/>
      </g>
     </g>
    </g>
    <g id="ytick_4">
     <g id="line2d_11">
      <g>
       <use style="stroke:#000000;stroke-width:0.8;" x="54" xlink:href="#m980c7fd7d0" y="134.094464"/>
      </g>
     </g>
     <g id="text_11">
      <!-- 150 -->
      <g transform="translate(27.9125 137.893683)scale(0.1 -0.1)">
       <use xlink:href="#DejaVuSans-49"/>
       <use x="63.623047" xlink:href="#DejaVuSans-53"/>
       <use x="127.246094" xlink:href="#DejaVuSans-48"/>
      </g>
     </g>
    </g>
    <g id="ytick_5">
     <g id="line2d_12">
      <g>
       <use style="stroke:#000000;stroke-width:0.8;" x="54" xlink:href="#m980c7fd7d0" y="97.352322"/>
      </g>
     </g>
     <g id="text_12">
      <!-- 200 -->
      <g transform="translate(27.9125 101.15154)scale(0.1 -0.1)">
       <use xlink:href="#DejaVuSans-50"/>
       <use x="63.623047" xlink:href="#DejaVuSans-48"/>
       <use x="127.246094" xlink:href="#DejaVuSans-48"/>
      </g>
     </g>
    </g>
    <g id="ytick_6">
     <g id="line2d_13">
      <g>
       <use style="stroke:#000000;stroke-width:0.8;" x="54" xlink:href="#m980c7fd7d0" y="60.610179"/>
      </g>
     </g>
     <g id="text_13">
      <!-- 250 -->
      <g transform="translate(27.9125 64.409398)scale(0.1 -0.1)">
       <use xlink:href="#DejaVuSans-50"/>
       <use x="63.623047" xlink:href="#DejaVuSans-53"/>
       <use x="127.246094" xlink:href="#DejaVuSans-48"/>
      </g>
     </g>
    </g>
   </g>
   <g id="line2d_14">
    <path clip-path="url(#p166f079029)" d="M 69.218182 61.345022 
L 70.23612 58.405651 
L 71.254059 75.307036 
L 72.271998 85.594836 
L 73.289936 92.943265 
L 74.307875 91.473579 
L 75.325813 78.246408 
L 76.343752 74.572193 
L 77.36169 82.655465 
L 78.379629 96.617479 
L 79.397568 87.064522 
L 80.415506 95.882636 
L 81.433445 99.55685 
L 82.451383 137.033836 
L 83.469322 145.85195 
L 85.505199 137.033836 
L 86.523138 107.640122 
L 87.541076 131.889936 
L 89.576953 151.730693 
L 90.594892 153.935221 
L 91.612831 150.99585 
L 92.630769 162.753336 
L 93.648708 159.079121 
L 94.666646 178.919878 
L 95.684585 189.207678 
L 96.702524 184.798621 
L 97.720462 220.071078 
L 99.756339 242.116364 
L 100.774278 98.822007 
L 101.792216 76.041879 
L 102.810155 90.738736 
L 103.828094 70.163136 
L 104.846032 78.246408 
L 105.863971 90.738736 
L 106.881909 76.041879 
L 107.899848 75.307036 
L 108.917787 103.231065 
L 109.935725 97.352322 
L 110.953664 120.13245 
L 111.971602 125.27635 
L 112.989541 134.829307 
L 114.007479 122.336979 
L 115.025418 123.071822 
L 116.043357 142.912579 
L 117.061295 130.42025 
L 118.079234 155.404907 
L 119.097172 149.526164 
L 120.115111 162.018493 
L 122.150988 166.42755 
L 124.186865 178.185035 
L 125.204804 170.836607 
L 126.222742 198.760635 
L 127.240681 206.843907 
L 128.25862 217.86655 
L 129.276558 214.927178 
L 130.294497 230.358878 
L 131.312435 225.949821 
L 132.330374 231.093721 
L 133.348313 229.624035 
L 134.366251 226.684664 
L 135.38419 230.358878 
L 136.402128 215.662021 
L 137.420067 193.616735 
L 138.438005 162.753336 
L 139.455944 159.079121 
L 140.473883 156.874593 
L 141.491821 131.155093 
L 142.50976 98.087165 
L 143.527698 58.405651 
L 144.545637 84.859993 
L 145.563576 44.443636 
L 146.581514 66.488922 
L 147.599453 84.859993 
L 148.617391 85.594836 
L 149.63533 92.943265 
L 150.653268 95.147793 
L 151.671207 81.185779 
L 153.707084 63.549551 
L 154.725023 76.776722 
L 155.742961 66.488922 
L 156.7609 76.776722 
L 157.778839 83.390308 
L 158.796777 83.390308 
L 160.832654 134.094464 
L 162.868531 102.496222 
L 163.88647 103.965907 
L 164.904409 119.397607 
L 165.922347 142.177736 
L 166.940286 128.950564 
L 167.958224 148.791321 
L 168.976163 154.670064 
L 169.994102 162.018493 
L 171.01204 156.874593 
L 172.029979 167.897236 
L 173.047917 182.594093 
L 174.065856 175.245664 
L 175.083794 206.843907 
L 176.101733 204.639378 
L 177.119672 208.313592 
L 179.155549 231.828564 
L 180.173487 231.093721 
L 181.191426 227.419507 
L 182.209365 230.358878 
L 183.227303 226.684664 
L 184.245242 225.214978 
L 186.281119 200.965164 
L 187.299057 176.71535 
L 188.316996 156.874593 
L 189.334935 167.162393 
L 190.352873 164.223021 
L 191.370812 152.465536 
L 192.38875 120.867293 
L 193.406689 108.374965 
L 194.424628 111.314336 
L 195.442566 102.496222 
L 196.460505 109.84465 
L 197.478443 95.147793 
L 198.496382 108.374965 
L 199.51432 114.98855 
L 200.532259 87.064522 
L 201.550198 109.109807 
L 202.568136 106.170436 
L 203.586075 103.965907 
L 204.604013 87.799365 
L 205.621952 111.314336 
L 206.639891 104.70075 
L 207.657829 137.033836 
L 208.675768 154.670064 
L 209.693706 148.056479 
L 210.711645 145.85195 
L 211.729583 145.117107 
L 212.747522 130.42025 
L 213.765461 156.874593 
L 214.783399 170.101764 
L 215.801338 152.465536 
L 216.819276 170.101764 
L 217.837215 172.306293 
L 218.855154 169.366921 
L 219.873092 168.632078 
L 220.891031 189.207678 
L 221.908969 175.980507 
L 222.926908 194.351578 
L 223.944846 192.14705 
L 224.962785 205.374221 
L 225.980724 212.72265 
L 226.998662 222.275607 
L 228.016601 226.684664 
L 229.034539 234.767935 
L 230.052478 236.972464 
L 231.070417 227.419507 
L 232.088355 229.624035 
L 233.106294 231.093721 
L 234.124232 214.192335 
L 235.142171 203.904535 
L 236.160109 182.594093 
L 237.178048 191.412207 
L 238.195987 189.207678 
L 239.213925 175.980507 
L 241.249802 152.465536 
L 243.28568 114.253707 
L 244.303618 117.927922 
L 245.321557 132.624779 
L 246.339495 117.193079 
L 247.357434 106.170436 
L 248.375372 133.359621 
L 249.393311 123.071822 
L 250.41125 108.374965 
L 251.429188 82.655465 
L 252.447127 112.784022 
L 253.465065 126.011193 
L 254.483004 132.624779 
L 255.500943 140.70805 
L 256.518881 142.177736 
L 257.53682 173.041136 
L 258.554758 153.935221 
L 259.572697 161.28365 
L 260.590635 159.813964 
L 261.608574 179.654721 
L 262.626513 173.041136 
L 263.644451 162.018493 
L 264.66239 183.328935 
L 265.680328 174.510821 
L 266.698267 203.169692 
L 267.716206 191.412207 
L 268.734144 200.965164 
L 269.752083 197.29095 
L 270.770021 197.29095 
L 271.78796 189.207678 
L 272.805898 188.472835 
L 273.823837 211.252964 
L 274.841776 220.071078 
L 275.859714 214.927178 
L 276.877653 229.624035 
L 277.895591 225.949821 
L 278.91353 231.828564 
L 279.931469 233.298249 
L 280.949407 234.033092 
L 281.967346 228.154349 
L 282.985284 228.889192 
L 284.003223 217.131707 
L 285.021161 212.72265 
L 286.0391 197.29095 
L 287.057039 185.533464 
L 288.074977 153.935221 
L 289.092916 160.548807 
L 290.110854 144.382264 
L 291.128793 140.70805 
L 292.146732 145.117107 
L 293.16467 150.99585 
L 294.182609 133.359621 
L 295.200547 129.685407 
L 296.218486 139.973207 
L 297.236424 164.223021 
L 298.254363 139.973207 
L 299.272302 155.404907 
L 300.29024 142.912579 
L 301.308179 137.768679 
L 302.326117 148.056479 
L 303.344056 150.261007 
L 304.361995 153.200379 
L 305.379933 173.775978 
L 306.397872 182.594093 
L 307.41581 183.328935 
L 308.433749 184.798621 
L 309.451687 178.185035 
L 310.469626 167.897236 
L 311.487565 173.041136 
L 312.505503 160.548807 
L 313.523442 173.041136 
L 314.54138 175.980507 
L 315.559319 171.57145 
L 316.577258 170.101764 
L 317.595196 177.450193 
L 318.613135 190.677364 
L 319.631073 197.29095 
L 320.649012 239.176992 
L 321.66695 227.419507 
L 322.684889 226.684664 
L 323.702828 213.457492 
L 324.720766 227.419507 
L 325.738705 231.093721 
L 326.756643 225.949821 
L 327.774582 240.646678 
L 328.792521 232.563407 
L 329.810459 229.624035 
L 330.828398 237.707307 
L 331.846336 225.949821 
L 332.864275 225.214978 
L 333.882213 198.760635 
L 334.900152 201.700007 
L 335.918091 168.632078 
L 336.936029 164.957864 
L 337.953968 159.079121 
L 338.971906 131.889936 
L 339.989845 148.791321 
L 341.007784 135.56415 
L 342.025722 142.912579 
L 343.043661 140.70805 
L 344.061599 158.344278 
L 345.079538 139.973207 
L 347.115415 161.28365 
L 348.133354 156.874593 
L 349.151292 140.70805 
L 350.169231 146.586793 
L 351.187169 144.382264 
L 352.205108 162.018493 
L 353.223047 162.753336 
L 354.240985 156.874593 
L 355.258924 159.079121 
L 356.276862 157.609436 
L 357.294801 175.245664 
L 358.312739 175.245664 
L 359.330678 153.935221 
L 360.348617 156.874593 
L 361.366555 159.079121 
L 362.384494 162.018493 
L 363.402432 160.548807 
L 364.420371 176.71535 
L 365.43831 156.874593 
L 366.456248 170.836607 
L 367.474187 187.00315 
L 368.492125 176.71535 
L 369.510064 210.518121 
L 370.528002 220.071078 
L 371.545941 238.442149 
L 372.56388 241.381521 
L 373.581818 102.496222 
L 373.581818 102.496222 
" style="fill:none;stroke:#1f77b4;stroke-linecap:square;stroke-width:1.5;"/>
   </g>
   <g id="patch_3">
    <path d="M 54 252 
L 54 34.56 
" style="fill:none;stroke:#000000;stroke-linecap:square;stroke-linejoin:miter;stroke-width:0.8;"/>
   </g>
   <g id="patch_4">
    <path d="M 388.8 252 
L 388.8 34.56 
" style="fill:none;stroke:#000000;stroke-linecap:square;stroke-linejoin:miter;stroke-width:0.8;"/>
   </g>
   <g id="patch_5">
    <path d="M 54 252 
L 388.8 252 
" style="fill:none;stroke:#000000;stroke-linecap:square;stroke-linejoin:miter;stroke-width:0.8;"/>
   </g>
   <g id="patch_6">
    <path d="M 54 34.56 
L 388.8 34.56 
" style="fill:none;stroke:#000000;stroke-linecap:square;stroke-linejoin:miter;stroke-width:0.8;"/>
   </g>
  </g>
 </g>
 <defs>
  <clipPath id="p166f079029">
   <rect height="217.44" width="334.8" x="54" y="34.56"/>
  </clipPath>
 </defs>
</svg>
