<?xml version="1.0" encoding="utf-8" standalone="no"?>
<!DOCTYPE svg PUBLIC "-//W3C//DTD SVG 1.1//EN"
  "http://www.w3.org/Graphics/SVG/1.1/DTD/svg11.dtd">
<!-- Created with matplotlib (https://matplotlib.org/) -->
<svg height="288pt" version="1.1" viewBox="0 0 432 288" width="432pt" xmlns="http://www.w3.org/2000/svg" xmlns:xlink="http://www.w3.org/1999/xlink">
 <defs>
  <style type="text/css">
*{stroke-linecap:butt;stroke-linejoin:round;}
  </style>
 </defs>
 <g id="figure_1">
  <g id="patch_1">
   <path d="M 0 288 
L 432 288 
L 432 0 
L 0 0 
z
" style="fill:#ffffff;"/>
  </g>
  <g id="axes_1">
   <g id="patch_2">
    <path d="M 54 252 
L 388.8 252 
L 388.8 34.56 
L 54 34.56 
z
" style="fill:#ffffff;"/>
   </g>
   <g id="matplotlib.axis_1">
    <g id="xtick_1">
     <g id="line2d_1">
      <defs>
       <path d="M 0 0 
L 0 3.5 
" id="m3c6907d2f7" style="stroke:#000000;stroke-width:0.8;"/>
      </defs>
      <g>
       <use style="stroke:#000000;stroke-width:0.8;" x="69.218182" xlink:href="#m3c6907d2f7" y="252"/>
      </g>
     </g>
     <g id="text_1">
      <!-- 0 -->
      <defs>
       <path d="M 31.78125 66.40625 
Q 24.171875 66.40625 20.328125 58.90625 
Q 16.5 51.421875 16.5 36.375 
Q 16.5 21.390625 20.328125 13.890625 
Q 24.171875 6.390625 31.78125 6.390625 
Q 39.453125 6.390625 43.28125 13.890625 
Q 47.125 21.390625 47.125 36.375 
Q 47.125 51.421875 43.28125 58.90625 
Q 39.453125 66.40625 31.78125 66.40625 
z
M 31.78125 74.21875 
Q 44.046875 74.21875 50.515625 64.515625 
Q 56.984375 54.828125 56.984375 36.375 
Q 56.984375 17.96875 50.515625 8.265625 
Q 44.046875 -1.421875 31.78125 -1.421875 
Q 19.53125 -1.421875 13.0625 8.265625 
Q 6.59375 17.96875 6.59375 36.375 
Q 6.59375 54.828125 13.0625 64.515625 
Q 19.53125 74.21875 31.78125 74.21875 
z
" id="DejaVuSans-48"/>
      </defs>
      <g transform="translate(66.036932 266.598437)scale(0.1 -0.1)">
       <use xlink:href="#DejaVuSans-48"/>
      </g>
     </g>
    </g>
    <g id="xtick_2">
     <g id="line2d_2">
      <g>
       <use style="stroke:#000000;stroke-width:0.8;" x="112.704914" xlink:href="#m3c6907d2f7" y="252"/>
      </g>
     </g>
     <g id="text_2">
      <!-- 1000 -->
      <defs>
       <path d="M 12.40625 8.296875 
L 28.515625 8.296875 
L 28.515625 63.921875 
L 10.984375 60.40625 
L 10.984375 69.390625 
L 28.421875 72.90625 
L 38.28125 72.90625 
L 38.28125 8.296875 
L 54.390625 8.296875 
L 54.390625 0 
L 12.40625 0 
z
" id="DejaVuSans-49"/>
      </defs>
      <g transform="translate(99.979914 266.598437)scale(0.1 -0.1)">
       <use xlink:href="#DejaVuSans-49"/>
       <use x="63.623047" xlink:href="#DejaVuSans-48"/>
       <use x="127.246094" xlink:href="#DejaVuSans-48"/>
       <use x="190.869141" xlink:href="#DejaVuSans-48"/>
      </g>
     </g>
    </g>
    <g id="xtick_3">
     <g id="line2d_3">
      <g>
       <use style="stroke:#000000;stroke-width:0.8;" x="156.191646" xlink:href="#m3c6907d2f7" y="252"/>
      </g>
     </g>
     <g id="text_3">
      <!-- 2000 -->
      <defs>
       <path d="M 19.1875 8.296875 
L 53.609375 8.296875 
L 53.609375 0 
L 7.328125 0 
L 7.328125 8.296875 
Q 12.9375 14.109375 22.625 23.890625 
Q 32.328125 33.6875 34.8125 36.53125 
Q 39.546875 41.84375 41.421875 45.53125 
Q 43.3125 49.21875 43.3125 52.78125 
Q 43.3125 58.59375 39.234375 62.25 
Q 35.15625 65.921875 28.609375 65.921875 
Q 23.96875 65.921875 18.8125 64.3125 
Q 13.671875 62.703125 7.8125 59.421875 
L 7.8125 69.390625 
Q 13.765625 71.78125 18.9375 73 
Q 24.125 74.21875 28.421875 74.21875 
Q 39.75 74.21875 46.484375 68.546875 
Q 53.21875 62.890625 53.21875 53.421875 
Q 53.21875 48.921875 51.53125 44.890625 
Q 49.859375 40.875 45.40625 35.40625 
Q 44.1875 33.984375 37.640625 27.21875 
Q 31.109375 20.453125 19.1875 8.296875 
z
" id="DejaVuSans-50"/>
      </defs>
      <g transform="translate(143.466646 266.598437)scale(0.1 -0.1)">
       <use xlink:href="#DejaVuSans-50"/>
       <use x="63.623047" xlink:href="#DejaVuSans-48"/>
       <use x="127.246094" xlink:href="#DejaVuSans-48"/>
       <use x="190.869141" xlink:href="#DejaVuSans-48"/>
      </g>
     </g>
    </g>
    <g id="xtick_4">
     <g id="line2d_4">
      <g>
       <use style="stroke:#000000;stroke-width:0.8;" x="199.678377" xlink:href="#m3c6907d2f7" y="252"/>
      </g>
     </g>
     <g id="text_4">
      <!-- 3000 -->
      <defs>
       <path d="M 40.578125 39.3125 
Q 47.65625 37.796875 51.625 33 
Q 55.609375 28.21875 55.609375 21.1875 
Q 55.609375 10.40625 48.1875 4.484375 
Q 40.765625 -1.421875 27.09375 -1.421875 
Q 22.515625 -1.421875 17.65625 -0.515625 
Q 12.796875 0.390625 7.625 2.203125 
L 7.625 11.71875 
Q 11.71875 9.328125 16.59375 8.109375 
Q 21.484375 6.890625 26.8125 6.890625 
Q 36.078125 6.890625 40.9375 10.546875 
Q 45.796875 14.203125 45.796875 21.1875 
Q 45.796875 27.640625 41.28125 31.265625 
Q 36.765625 34.90625 28.71875 34.90625 
L 20.21875 34.90625 
L 20.21875 43.015625 
L 29.109375 43.015625 
Q 36.375 43.015625 40.234375 45.921875 
Q 44.09375 48.828125 44.09375 54.296875 
Q 44.09375 59.90625 40.109375 62.90625 
Q 36.140625 65.921875 28.71875 65.921875 
Q 24.65625 65.921875 20.015625 65.03125 
Q 15.375 64.15625 9.8125 62.3125 
L 9.8125 71.09375 
Q 15.4375 72.65625 20.34375 73.4375 
Q 25.25 74.21875 29.59375 74.21875 
Q 40.828125 74.21875 47.359375 69.109375 
Q 53.90625 64.015625 53.90625 55.328125 
Q 53.90625 49.265625 50.4375 45.09375 
Q 46.96875 40.921875 40.578125 39.3125 
z
" id="DejaVuSans-51"/>
      </defs>
      <g transform="translate(186.953377 266.598437)scale(0.1 -0.1)">
       <use xlink:href="#DejaVuSans-51"/>
       <use x="63.623047" xlink:href="#DejaVuSans-48"/>
       <use x="127.246094" xlink:href="#DejaVuSans-48"/>
       <use x="190.869141" xlink:href="#DejaVuSans-48"/>
      </g>
     </g>
    </g>
    <g id="xtick_5">
     <g id="line2d_5">
      <g>
       <use style="stroke:#000000;stroke-width:0.8;" x="243.165109" xlink:href="#m3c6907d2f7" y="252"/>
      </g>
     </g>
     <g id="text_5">
      <!-- 4000 -->
      <defs>
       <path d="M 37.796875 64.3125 
L 12.890625 25.390625 
L 37.796875 25.390625 
z
M 35.203125 72.90625 
L 47.609375 72.90625 
L 47.609375 25.390625 
L 58.015625 25.390625 
L 58.015625 17.1875 
L 47.609375 17.1875 
L 47.609375 0 
L 37.796875 0 
L 37.796875 17.1875 
L 4.890625 17.1875 
L 4.890625 26.703125 
z
" id="DejaVuSans-52"/>
      </defs>
      <g transform="translate(230.440109 266.598437)scale(0.1 -0.1)">
       <use xlink:href="#DejaVuSans-52"/>
       <use x="63.623047" xlink:href="#DejaVuSans-48"/>
       <use x="127.246094" xlink:href="#DejaVuSans-48"/>
       <use x="190.869141" xlink:href="#DejaVuSans-48"/>
      </g>
     </g>
    </g>
    <g id="xtick_6">
     <g id="line2d_6">
      <g>
       <use style="stroke:#000000;stroke-width:0.8;" x="286.651841" xlink:href="#m3c6907d2f7" y="252"/>
      </g>
     </g>
     <g id="text_6">
      <!-- 5000 -->
      <defs>
       <path d="M 10.796875 72.90625 
L 49.515625 72.90625 
L 49.515625 64.59375 
L 19.828125 64.59375 
L 19.828125 46.734375 
Q 21.96875 47.46875 24.109375 47.828125 
Q 26.265625 48.1875 28.421875 48.1875 
Q 40.625 48.1875 47.75 41.5 
Q 54.890625 34.8125 54.890625 23.390625 
Q 54.890625 11.625 47.5625 5.09375 
Q 40.234375 -1.421875 26.90625 -1.421875 
Q 22.3125 -1.421875 17.546875 -0.640625 
Q 12.796875 0.140625 7.71875 1.703125 
L 7.71875 11.625 
Q 12.109375 9.234375 16.796875 8.0625 
Q 21.484375 6.890625 26.703125 6.890625 
Q 35.15625 6.890625 40.078125 11.328125 
Q 45.015625 15.765625 45.015625 23.390625 
Q 45.015625 31 40.078125 35.4375 
Q 35.15625 39.890625 26.703125 39.890625 
Q 22.75 39.890625 18.8125 39.015625 
Q 14.890625 38.140625 10.796875 36.28125 
z
" id="DejaVuSans-53"/>
      </defs>
      <g transform="translate(273.926841 266.598437)scale(0.1 -0.1)">
       <use xlink:href="#DejaVuSans-53"/>
       <use x="63.623047" xlink:href="#DejaVuSans-48"/>
       <use x="127.246094" xlink:href="#DejaVuSans-48"/>
       <use x="190.869141" xlink:href="#DejaVuSans-48"/>
      </g>
     </g>
    </g>
    <g id="xtick_7">
     <g id="line2d_7">
      <g>
       <use style="stroke:#000000;stroke-width:0.8;" x="330.138573" xlink:href="#m3c6907d2f7" y="252"/>
      </g>
     </g>
     <g id="text_7">
      <!-- 6000 -->
      <defs>
       <path d="M 33.015625 40.375 
Q 26.375 40.375 22.484375 35.828125 
Q 18.609375 31.296875 18.609375 23.390625 
Q 18.609375 15.53125 22.484375 10.953125 
Q 26.375 6.390625 33.015625 6.390625 
Q 39.65625 6.390625 43.53125 10.953125 
Q 47.40625 15.53125 47.40625 23.390625 
Q 47.40625 31.296875 43.53125 35.828125 
Q 39.65625 40.375 33.015625 40.375 
z
M 52.59375 71.296875 
L 52.59375 62.3125 
Q 48.875 64.0625 45.09375 64.984375 
Q 41.3125 65.921875 37.59375 65.921875 
Q 27.828125 65.921875 22.671875 59.328125 
Q 17.53125 52.734375 16.796875 39.40625 
Q 19.671875 43.65625 24.015625 45.921875 
Q 28.375 48.1875 33.59375 48.1875 
Q 44.578125 48.1875 50.953125 41.515625 
Q 57.328125 34.859375 57.328125 23.390625 
Q 57.328125 12.15625 50.6875 5.359375 
Q 44.046875 -1.421875 33.015625 -1.421875 
Q 20.359375 -1.421875 13.671875 8.265625 
Q 6.984375 17.96875 6.984375 36.375 
Q 6.984375 53.65625 15.1875 63.9375 
Q 23.390625 74.21875 37.203125 74.21875 
Q 40.921875 74.21875 44.703125 73.484375 
Q 48.484375 72.75 52.59375 71.296875 
z
" id="DejaVuSans-54"/>
      </defs>
      <g transform="translate(317.413573 266.598437)scale(0.1 -0.1)">
       <use xlink:href="#DejaVuSans-54"/>
       <use x="63.623047" xlink:href="#DejaVuSans-48"/>
       <use x="127.246094" xlink:href="#DejaVuSans-48"/>
       <use x="190.869141" xlink:href="#DejaVuSans-48"/>
      </g>
     </g>
    </g>
    <g id="xtick_8">
     <g id="line2d_8">
      <g>
       <use style="stroke:#000000;stroke-width:0.8;" x="373.625305" xlink:href="#m3c6907d2f7" y="252"/>
      </g>
     </g>
     <g id="text_8">
      <!-- 7000 -->
      <defs>
       <path d="M 8.203125 72.90625 
L 55.078125 72.90625 
L 55.078125 68.703125 
L 28.609375 0 
L 18.3125 0 
L 43.21875 64.59375 
L 8.203125 64.59375 
z
" id="DejaVuSans-55"/>
      </defs>
      <g transform="translate(360.900305 266.598437)scale(0.1 -0.1)">
       <use xlink:href="#DejaVuSans-55"/>
       <use x="63.623047" xlink:href="#DejaVuSans-48"/>
       <use x="127.246094" xlink:href="#DejaVuSans-48"/>
       <use x="190.869141" xlink:href="#DejaVuSans-48"/>
      </g>
     </g>
    </g>
   </g>
   <g id="matplotlib.axis_2">
    <g id="ytick_1">
     <g id="line2d_9">
      <defs>
       <path d="M 0 0 
L -3.5 0 
" id="m94a3332663" style="stroke:#000000;stroke-width:0.8;"/>
      </defs>
      <g>
       <use style="stroke:#000000;stroke-width:0.8;" x="54" xlink:href="#m94a3332663" y="242.116364"/>
      </g>
     </g>
     <g id="text_9">
      <!-- 0 -->
      <g transform="translate(40.6375 245.915582)scale(0.1 -0.1)">
       <use xlink:href="#DejaVuSans-48"/>
      </g>
     </g>
    </g>
    <g id="ytick_2">
     <g id="line2d_10">
      <g>
       <use style="stroke:#000000;stroke-width:0.8;" x="54" xlink:href="#m94a3332663" y="210.336182"/>
      </g>
     </g>
     <g id="text_10">
      <!-- 50 -->
      <g transform="translate(34.275 214.135401)scale(0.1 -0.1)">
       <use xlink:href="#DejaVuSans-53"/>
       <use x="63.623047" xlink:href="#DejaVuSans-48"/>
      </g>
     </g>
    </g>
    <g id="ytick_3">
     <g id="line2d_11">
      <g>
       <use style="stroke:#000000;stroke-width:0.8;" x="54" xlink:href="#m94a3332663" y="178.556001"/>
      </g>
     </g>
     <g id="text_11">
      <!-- 100 -->
      <g transform="translate(27.9125 182.35522)scale(0.1 -0.1)">
       <use xlink:href="#DejaVuSans-49"/>
       <use x="63.623047" xlink:href="#DejaVuSans-48"/>
       <use x="127.246094" xlink:href="#DejaVuSans-48"/>
      </g>
     </g>
    </g>
    <g id="ytick_4">
     <g id="line2d_12">
      <g>
       <use style="stroke:#000000;stroke-width:0.8;" x="54" xlink:href="#m94a3332663" y="146.77582"/>
      </g>
     </g>
     <g id="text_12">
      <!-- 150 -->
      <g transform="translate(27.9125 150.575039)scale(0.1 -0.1)">
       <use xlink:href="#DejaVuSans-49"/>
       <use x="63.623047" xlink:href="#DejaVuSans-53"/>
       <use x="127.246094" xlink:href="#DejaVuSans-48"/>
      </g>
     </g>
    </g>
    <g id="ytick_5">
     <g id="line2d_13">
      <g>
       <use style="stroke:#000000;stroke-width:0.8;" x="54" xlink:href="#m94a3332663" y="114.995639"/>
      </g>
     </g>
     <g id="text_13">
      <!-- 200 -->
      <g transform="translate(27.9125 118.794857)scale(0.1 -0.1)">
       <use xlink:href="#DejaVuSans-50"/>
       <use x="63.623047" xlink:href="#DejaVuSans-48"/>
       <use x="127.246094" xlink:href="#DejaVuSans-48"/>
      </g>
     </g>
    </g>
    <g id="ytick_6">
     <g id="line2d_14">
      <g>
       <use style="stroke:#000000;stroke-width:0.8;" x="54" xlink:href="#m94a3332663" y="83.215457"/>
      </g>
     </g>
     <g id="text_14">
      <!-- 250 -->
      <g transform="translate(27.9125 87.014676)scale(0.1 -0.1)">
       <use xlink:href="#DejaVuSans-50"/>
       <use x="63.623047" xlink:href="#DejaVuSans-53"/>
       <use x="127.246094" xlink:href="#DejaVuSans-48"/>
      </g>
     </g>
    </g>
    <g id="ytick_7">
     <g id="line2d_15">
      <g>
       <use style="stroke:#000000;stroke-width:0.8;" x="54" xlink:href="#m94a3332663" y="51.435276"/>
      </g>
     </g>
     <g id="text_15">
      <!-- 300 -->
      <g transform="translate(27.9125 55.234495)scale(0.1 -0.1)">
       <use xlink:href="#DejaVuSans-51"/>
       <use x="63.623047" xlink:href="#DejaVuSans-48"/>
       <use x="127.246094" xlink:href="#DejaVuSans-48"/>
      </g>
     </g>
    </g>
   </g>
   <g id="line2d_16">
    <path clip-path="url(#pcc3dbbf31d)" d="M 69.218182 83.851061 
L 69.261669 81.308647 
L 69.392129 111.182017 
L 69.435615 109.91081 
L 69.522589 95.291926 
L 69.566076 102.283566 
L 69.609562 114.360035 
L 69.696536 113.724431 
L 69.740023 116.90245 
L 69.826996 156.945478 
L 69.870483 153.131856 
L 69.91397 149.318234 
L 69.957456 123.894089 
L 70.000943 144.869009 
L 70.218377 171.564361 
L 70.261863 168.386343 
L 70.522784 240.209553 
L 70.609757 96.563134 
L 70.653244 109.275206 
L 70.696731 91.478305 
L 70.740217 98.469944 
L 70.783704 109.275206 
L 70.827191 96.563134 
L 70.870678 95.92753 
L 71.044625 139.148576 
L 71.088111 147.411424 
L 71.131598 136.606162 
L 71.175085 137.241766 
L 71.305545 165.208325 
L 71.349032 160.123496 
L 71.522979 179.827208 
L 71.609952 178.556001 
L 71.696926 209.700579 
L 71.827386 230.039895 
L 71.870872 226.226273 
L 71.914359 230.675498 
L 71.957846 229.404291 
L 72.044819 230.039895 
L 72.088306 217.327822 
L 72.479687 69.232178 
L 72.653634 111.182017 
L 72.69712 113.088828 
L 72.827581 85.757872 
L 73.001527 102.91917 
L 73.045014 102.91917 
L 73.131988 146.77582 
L 73.175474 133.428144 
L 73.218961 119.444864 
L 73.262448 120.716071 
L 73.523368 170.928758 
L 73.566855 166.479532 
L 73.914749 231.311102 
L 73.958236 230.675498 
L 74.219156 204.61575 
L 74.306129 166.479532 
L 74.393103 172.835569 
L 74.69751 113.088828 
L 74.784483 130.250126 
L 74.82797 106.097188 
L 74.871457 125.165297 
L 74.95843 120.716071 
L 75.001917 106.732792 
L 75.045404 127.072108 
L 75.088891 121.351675 
L 75.175864 164.572721 
L 75.219351 158.852289 
L 75.306324 156.309874 
L 75.349811 143.597802 
L 75.523758 177.920398 
L 75.567245 179.827208 
L 75.610731 177.284794 
L 75.654218 176.64919 
L 75.784678 198.895317 
L 75.828165 196.988506 
L 76.045599 233.853517 
L 76.089085 235.760327 
L 76.350006 188.725659 
L 76.393493 196.352903 
L 76.436979 194.446092 
L 76.654413 129.614522 
L 76.6979 132.79254 
L 76.741386 145.504613 
L 76.784873 132.156937 
L 76.82836 122.622882 
L 76.871847 146.140216 
L 76.915333 137.241766 
L 77.002307 102.283566 
L 77.045794 128.343315 
L 77.263227 180.462812 
L 77.306714 163.937118 
L 77.393687 169.021947 
L 77.437174 186.183245 
L 77.480661 180.462812 
L 77.524148 170.928758 
L 77.654608 206.522561 
L 77.698095 196.352903 
L 77.785068 201.437732 
L 77.828555 201.437732 
L 77.915528 193.810488 
L 78.089475 229.404291 
L 78.132962 226.226273 
L 78.263422 233.217913 
L 78.524342 191.268074 
L 78.654803 155.674271 
L 78.698289 152.496253 
L 78.741776 156.309874 
L 78.785263 161.394703 
L 78.872236 142.962198 
L 78.915723 151.860649 
L 78.95921 172.835569 
L 79.046183 165.208325 
L 79.133157 149.953838 
L 79.176643 158.852289 
L 79.263617 163.301514 
L 79.437564 190.63247 
L 79.611511 169.65755 
L 79.698484 183.005227 
L 79.741971 179.191605 
L 79.785458 177.920398 
L 79.915918 201.437732 
L 79.959405 237.667138 
L 80.046378 226.861877 
L 80.089865 215.421011 
L 80.133352 227.49748 
L 80.220325 226.226273 
L 80.263812 238.938346 
L 80.350785 229.404291 
L 80.394272 236.395931 
L 80.437759 226.226273 
L 80.481245 225.590669 
L 80.742166 144.869009 
L 80.785652 159.487892 
L 80.872626 154.403063 
L 80.916113 152.496253 
L 80.959599 167.75074 
L 81.003086 151.860649 
L 81.046573 160.7591 
L 81.09006 170.293154 
L 81.133546 166.479532 
L 81.177033 152.496253 
L 81.264007 155.674271 
L 81.35098 171.564361 
L 81.394467 166.479532 
L 81.437953 168.386343 
L 81.48144 167.115136 
L 81.568414 182.369623 
L 81.6119 163.937118 
L 81.698874 168.386343 
L 81.742361 170.928758 
L 81.785847 169.65755 
L 81.872821 166.479532 
L 81.959794 192.539281 
L 82.003281 183.64083 
L 82.177228 239.573949 
L 82.220715 119.444864 
L 82.307688 120.716071 
L 82.351175 126.436504 
L 82.481635 111.817621 
L 82.568609 136.606162 
L 82.655582 172.835569 
L 82.742555 167.75074 
L 82.829529 151.225045 
L 82.916502 154.403063 
L 83.568803 232.582309 
L 83.786237 214.785408 
L 83.916697 170.293154 
L 83.960184 241.48076 
L 84.003671 122.622882 
L 84.090644 123.894089 
L 84.177618 111.182017 
L 84.221104 135.334955 
L 84.264591 125.8009 
L 84.308078 104.190377 
L 84.351565 134.063747 
L 84.525511 171.564361 
L 84.568998 158.216685 
L 84.612485 141.055387 
L 84.699458 181.734019 
L 84.742945 181.098416 
L 84.786432 176.64919 
L 84.829919 179.191605 
L 84.873405 180.462812 
L 84.916892 188.725659 
L 84.960379 175.377983 
L 85.003865 192.539281 
L 85.047352 231.946706 
L 85.134326 222.412651 
L 85.177812 217.963426 
L 85.221299 223.683859 
L 85.264786 223.683859 
L 85.308273 230.675498 
L 85.395246 226.861877 
L 85.438733 226.861877 
L 85.48222 225.590669 
L 85.74314 144.233405 
L 85.917087 70.503385 
L 86.091034 121.351675 
L 86.178007 102.91917 
L 86.221494 104.825981 
L 86.264981 104.190377 
L 86.351954 115.631242 
L 86.395441 104.825981 
L 86.569388 151.860649 
L 86.699848 126.436504 
L 86.917282 179.827208 
L 86.960768 180.462812 
L 87.004255 173.471172 
L 87.047742 182.369623 
L 87.134715 197.62411 
L 87.265176 241.48076 
L 87.395636 101.647963 
L 87.439122 111.182017 
L 87.482609 105.461584 
L 87.526096 93.385115 
L 87.569583 95.92753 
L 87.700043 150.589442 
L 87.787016 149.953838 
L 87.917477 141.690991 
L 87.960963 130.250126 
L 88.00445 144.233405 
L 88.13491 172.199965 
L 88.221884 160.123496 
L 88.395831 194.446092 
L 88.439317 193.810488 
L 88.569778 221.777048 
L 88.656751 232.582309 
L 88.700238 227.49748 
L 88.787211 228.133084 
L 88.830698 223.683859 
L 89.135105 62.876141 
L 89.222078 94.656323 
L 89.265565 104.190377 
L 89.309052 84.486665 
L 89.352539 98.469944 
L 89.396025 123.894089 
L 89.439512 113.088828 
L 89.526486 106.097188 
L 89.569972 129.614522 
L 89.613459 100.376755 
L 89.700433 128.343315 
L 89.743919 101.012359 
L 89.787406 135.334955 
L 89.830893 133.428144 
L 89.917866 156.309874 
L 89.961353 146.77582 
L 90.00484 125.165297 
L 90.048326 153.131856 
L 90.1353 156.945478 
L 90.178787 172.835569 
L 90.222273 169.021947 
L 90.26576 161.394703 
L 90.352734 164.572721 
L 90.39622 166.479532 
L 90.483194 205.886957 
L 90.570167 205.251353 
L 90.787601 229.404291 
L 91.178981 170.293154 
L 91.222468 153.131856 
L 91.265955 155.038667 
L 91.309442 171.564361 
L 91.352928 136.606162 
L 91.439902 147.411424 
L 91.483389 144.233405 
L 91.613849 171.564361 
L 91.657335 149.318234 
L 91.744309 158.216685 
L 91.787796 160.123496 
L 91.874769 158.216685 
L 91.961743 179.191605 
L 92.048716 172.835569 
L 92.092203 152.496253 
L 92.13569 164.572721 
L 92.222663 178.556001 
L 92.309636 239.573949 
L 92.353123 231.311102 
L 92.440097 188.090056 
L 92.483583 196.352903 
L 92.52707 212.878597 
L 92.570557 196.352903 
L 92.78799 233.217913 
L 92.831477 231.946706 
L 92.918451 232.582309 
L 93.135884 195.081695 
L 93.179371 203.344543 
L 93.440291 134.699351 
L 93.483778 132.79254 
L 93.657725 160.123496 
L 93.744699 142.962198 
L 93.875159 162.665911 
L 93.962132 155.038667 
L 94.005619 177.920398 
L 94.092592 176.013587 
L 94.136079 164.572721 
L 94.223053 169.65755 
L 94.310026 166.479532 
L 94.440486 196.988506 
L 94.52746 186.818848 
L 94.614433 183.005227 
L 94.701407 219.234633 
L 94.744893 219.870237 
L 94.875354 232.582309 
L 94.962327 226.861877 
L 95.005814 231.311102 
L 95.049301 229.404291 
L 95.571141 80.673043 
L 95.614628 95.92753 
L 95.658115 97.834341 
L 95.875548 242.116364 
L 95.919035 113.088828 
L 96.006009 113.724431 
L 96.136469 154.403063 
L 96.223442 134.699351 
L 96.310416 123.894089 
L 96.484363 163.937118 
L 97.04969 234.48912 
L 97.310611 161.394703 
L 97.354097 162.665911 
L 97.441071 120.716071 
L 97.615018 67.96097 
L 97.701991 92.113908 
L 97.788965 207.793768 
L 97.875938 99.741152 
L 97.919425 103.554773 
L 98.006398 87.029079 
L 98.049885 94.020719 
L 98.180345 145.504613 
L 98.223832 132.156937 
L 98.267319 156.309874 
L 98.354292 147.411424 
L 98.441266 137.877369 
L 98.615213 178.556001 
L 98.702186 157.581082 
L 98.91962 215.421011 
L 98.963106 223.683859 
L 99.05008 222.412651 
L 99.18054 230.039895 
L 99.528434 114.360035 
L 99.571921 71.774592 
L 99.658894 87.664683 
L 99.702381 78.130628 
L 99.789354 106.097188 
L 99.832841 104.825981 
L 99.876328 102.91917 
L 100.006788 79.401836 
L 100.180735 126.436504 
L 100.224222 112.453224 
L 100.267708 133.428144 
L 100.311195 141.690991 
L 100.398169 112.453224 
L 100.572115 162.030307 
L 100.615602 158.852289 
L 100.659089 163.301514 
L 100.876523 187.454452 
L 101.05047 217.327822 
L 101.093956 217.327822 
L 101.18093 231.946706 
L 101.224416 229.404291 
L 101.44185 176.64919 
L 101.659284 116.90245 
L 101.702771 127.072108 
L 101.746257 133.428144 
L 101.789744 127.072108 
L 101.833231 104.825981 
L 101.920204 114.360035 
L 101.963691 102.91917 
L 102.007178 144.869009 
L 102.050664 122.622882 
L 102.094151 113.724431 
L 102.181125 116.266846 
L 102.268098 153.131856 
L 102.355072 241.48076 
L 102.398558 233.853517 
L 102.615992 150.589442 
L 102.746452 191.903677 
L 102.789939 183.005227 
L 102.920399 197.62411 
L 102.963886 196.988506 
L 103.007372 187.454452 
L 103.050859 200.166524 
L 103.224806 231.946706 
L 103.31178 231.311102 
L 103.355266 232.582309 
L 103.398753 231.946706 
L 103.920594 81.94425 
L 103.964081 135.970558 
L 104.051054 128.343315 
L 104.138028 114.360035 
L 104.181514 132.156937 
L 104.225001 118.173657 
L 104.268488 110.546413 
L 104.485921 167.115136 
L 104.572895 153.131856 
L 104.616382 156.309874 
L 104.659868 159.487892 
L 104.703355 158.216685 
L 104.746842 178.556001 
L 104.833815 176.013587 
L 105.051249 233.217913 
L 105.138222 216.692219 
L 105.181709 210.971786 
L 105.225196 216.692219 
L 105.355656 226.861877 
L 105.399143 226.226273 
L 105.442629 221.777048 
L 105.486116 230.675498 
L 105.529603 224.955066 
L 105.790523 163.937118 
L 105.83401 141.690991 
L 105.920984 150.589442 
L 105.96447 142.326595 
L 106.007957 154.403063 
L 106.051444 163.301514 
L 106.181904 222.412651 
L 106.225391 210.336182 
L 106.268877 227.49748 
L 106.312364 227.49748 
L 106.399338 233.853517 
L 106.834205 188.725659 
L 106.921178 195.081695 
L 106.964665 199.530921 
L 107.008152 196.352903 
L 107.051639 181.734019 
L 107.095125 189.996866 
L 107.182099 185.547641 
L 107.225585 202.073335 
L 107.312559 207.793768 
L 107.356046 200.802128 
L 107.399532 210.336182 
L 107.443019 209.064975 
L 107.616966 217.327822 
L 107.660453 208.429372 
L 107.70394 219.234633 
L 107.790913 223.683859 
L 107.877886 217.963426 
L 107.921373 221.777048 
L 108.051833 225.590669 
L 108.09532 216.056615 
L 108.138807 231.311102 
L 108.182294 212.242993 
L 108.269267 225.590669 
L 108.399727 236.395931 
L 108.443214 235.760327 
L 108.486701 230.675498 
L 108.530187 238.938346 
L 108.573674 237.667138 
L 109.095515 158.216685 
L 108.660648 238.302742 
L 109.139002 160.7591 
L 109.182488 166.479532 
L 109.225975 158.852289 
L 109.356435 131.521333 
L 109.399922 154.403063 
L 109.486896 144.233405 
L 109.530382 140.419784 
L 109.747816 188.090056 
L 109.791303 158.852289 
L 109.834789 176.64919 
L 109.878276 177.920398 
L 109.921763 174.106776 
L 110.008736 197.62411 
L 110.052223 184.276434 
L 110.22617 206.522561 
L 110.269657 200.802128 
L 110.48709 230.039895 
L 110.530577 232.582309 
L 110.574064 228.768688 
L 110.617551 229.404291 
L 110.661037 227.49748 
L 110.704524 231.311102 
L 110.834984 200.802128 
L 111.095905 102.91917 
L 111.182878 242.116364 
L 111.269852 108.639602 
L 111.313338 112.453224 
L 111.356825 92.749512 
L 111.400312 97.198737 
L 111.835179 241.48076 
L 111.965639 184.276434 
L 112.096099 201.437732 
L 112.139586 195.717299 
L 112.35702 227.49748 
L 112.48748 232.582309 
L 112.791887 172.835569 
L 113.009321 98.469944 
L 113.052808 105.461584 
L 113.096294 111.817621 
L 113.139781 110.546413 
L 113.183268 106.732792 
L 113.226754 112.453224 
L 113.270241 128.978918 
L 113.313728 121.987279 
L 113.444188 102.91917 
L 113.661622 170.928758 
L 113.705109 171.564361 
L 113.748595 153.76746 
L 113.835569 158.216685 
L 113.879055 179.191605 
L 113.966029 174.742379 
L 114.009516 180.462812 
L 114.053002 173.471172 
L 114.096489 162.665911 
L 114.270436 200.166524 
L 114.531356 231.311102 
L 114.574843 225.590669 
L 114.61833 225.590669 
L 114.661817 224.955066 
L 114.705303 225.590669 
L 114.792277 186.818848 
L 115.00971 137.877369 
L 115.140171 92.113908 
L 115.183657 97.834341 
L 115.314118 134.063747 
L 115.357604 132.79254 
L 115.401091 132.156937 
L 115.531551 119.444864 
L 115.748985 180.462812 
L 115.922932 149.318234 
L 116.053392 169.021947 
L 116.096879 168.386343 
L 116.227339 186.183245 
L 116.270826 174.742379 
L 116.314312 230.039895 
L 116.401286 223.683859 
L 116.444773 224.955066 
L 116.488259 218.59903 
L 116.531746 221.777048 
L 116.662206 231.946706 
L 116.792666 225.590669 
L 116.923127 153.131856 
L 116.966613 177.284794 
L 117.0101 176.64919 
L 117.14056 108.639602 
L 117.184047 126.436504 
L 117.227534 106.732792 
L 117.271021 122.622882 
L 117.357994 140.419784 
L 117.401481 133.428144 
L 117.444967 136.606162 
L 117.488454 149.953838 
L 117.531941 135.334955 
L 117.575428 128.978918 
L 117.836348 181.734019 
L 117.879835 181.734019 
L 117.966808 167.115136 
L 118.097268 170.293154 
L 118.184242 182.369623 
L 118.227729 170.293154 
L 118.401676 242.116364 
L 118.445162 240.845156 
L 118.532136 240.845156 
L 118.662596 241.48076 
L 118.706083 240.209553 
L 118.749569 240.845156 
L 118.836543 242.116364 
L 119.053977 234.48912 
L 119.097463 235.760327 
L 119.184437 235.124724 
L 119.227923 229.404291 
L 119.27141 235.124724 
L 119.40187 238.302742 
L 119.445357 181.734019 
L 119.532331 203.980146 
L 119.706278 228.768688 
L 119.749764 228.133084 
L 119.793251 233.217913 
L 119.880224 231.311102 
L 120.184632 168.386343 
L 120.271605 169.021947 
L 120.315092 169.65755 
L 120.402065 160.123496 
L 120.489039 182.369623 
L 120.532525 170.928758 
L 120.706472 186.818848 
L 120.749959 185.547641 
L 120.793446 179.827208 
L 120.836933 191.903677 
L 120.880419 180.462812 
L 120.923906 181.734019 
L 120.967393 176.64919 
L 121.010879 189.361263 
L 121.097853 183.005227 
L 121.14134 183.005227 
L 121.228313 202.708939 
L 121.2718 193.810488 
L 121.358773 176.013587 
L 121.53272 239.573949 
L 121.576207 230.675498 
L 121.619694 224.955066 
L 121.66318 225.590669 
L 121.837127 234.48912 
L 121.880614 236.395931 
L 121.924101 235.760327 
L 122.054561 213.514201 
L 122.141535 193.810488 
L 122.185021 198.259714 
L 122.228508 201.437732 
L 122.358968 146.77582 
L 122.445942 153.131856 
L 122.489428 145.504613 
L 122.576402 165.208325 
L 122.619889 158.852289 
L 122.706862 143.597802 
L 122.837322 168.386343 
L 122.880809 158.852289 
L 122.967782 160.7591 
L 123.098243 205.886957 
L 123.141729 204.61575 
L 123.228703 186.818848 
L 123.27219 196.988506 
L 123.359163 217.963426 
L 123.40265 214.785408 
L 123.489623 222.412651 
L 123.576597 236.395931 
L 123.620083 203.980146 
L 123.66357 218.59903 
L 123.750544 240.845156 
L 123.79403 97.834341 
L 123.881004 123.258486 
L 123.924491 94.020719 
L 123.967977 102.283566 
L 124.011464 111.817621 
L 124.054951 94.020719 
L 124.098437 112.453224 
L 124.315871 164.572721 
L 124.402845 141.690991 
L 124.533305 166.479532 
L 124.576791 170.293154 
L 124.620278 187.454452 
L 124.663765 183.64083 
L 124.707252 177.284794 
L 124.750738 183.005227 
L 125.011659 221.141444 
L 125.185606 231.311102 
L 125.229092 233.217913 
L 125.316066 218.59903 
L 125.490013 165.843929 
L 125.5335 176.64919 
L 125.707447 85.122268 
L 125.750933 98.469944 
L 125.79442 81.94425 
L 125.837907 87.029079 
L 125.968367 108.639602 
L 126.011854 84.486665 
L 126.098827 90.842701 
L 126.142314 90.207097 
L 126.185801 83.851061 
L 126.403234 150.589442 
L 126.490208 110.546413 
L 126.664155 163.301514 
L 126.707641 158.852289 
L 127.012048 209.700579 
L 127.055535 210.336182 
L 127.272969 232.582309 
L 127.316456 234.48912 
L 127.881783 94.656323 
L 127.92527 94.020719 
L 127.968757 91.478305 
L 128.05573 241.48076 
L 128.099217 211.60739 
L 128.142704 103.554773 
L 128.229677 150.589442 
L 128.273164 151.860649 
L 128.31665 148.682631 
L 128.403624 130.250126 
L 128.447111 139.148576 
L 128.577571 170.928758 
L 128.664544 169.65755 
L 129.142898 234.48912 
L 129.229872 229.404291 
L 129.403819 189.361263 
L 129.621252 101.012359 
L 129.708226 75.588214 
L 129.838686 114.360035 
L 129.882173 100.376755 
L 129.92566 110.546413 
L 129.969146 117.538053 
L 130.012633 111.182017 
L 130.05612 108.003999 
L 130.099606 96.563134 
L 130.143093 110.546413 
L 130.18658 106.097188 
L 130.230067 112.453224 
L 130.360527 167.115136 
L 130.404014 156.945478 
L 130.534474 135.970558 
L 130.621447 131.521333 
L 130.882368 188.090056 
L 131.230261 228.133084 
L 131.317235 223.683859 
L 131.665129 154.403063 
L 131.795589 139.148576 
L 131.882562 132.156937 
L 131.926049 160.123496 
L 131.969536 151.860649 
L 132.013023 169.021947 
L 132.056509 164.572721 
L 132.099996 145.504613 
L 132.18697 149.318234 
L 132.230456 167.115136 
L 132.273943 148.682631 
L 132.404403 184.912037 
L 132.491377 171.564361 
L 132.534863 149.953838 
L 132.621837 150.589442 
L 132.70881 180.462812 
L 132.752297 176.013587 
L 132.839271 169.65755 
L 132.969731 196.352903 
L 133.013217 236.395931 
L 133.100191 219.870237 
L 133.143678 242.116364 
L 133.187164 222.412651 
L 133.230651 222.412651 
L 133.404598 231.946706 
L 133.665518 178.556001 
L 133.752492 236.395931 
L 133.795979 224.955066 
L 133.882952 131.521333 
L 133.926439 140.419784 
L 134.230846 225.590669 
L 134.404793 230.675498 
L 134.535253 219.870237 
L 134.665713 174.106776 
L 134.7092 176.013587 
L 134.752687 181.734019 
L 134.97012 98.469944 
L 135.013607 85.122268 
L 135.057094 103.554773 
L 135.100581 116.266846 
L 135.187554 114.995639 
L 135.361501 86.393476 
L 135.448474 113.724431 
L 135.578935 160.7591 
L 135.709395 128.343315 
L 135.883342 172.199965 
L 135.926829 165.208325 
L 135.970315 183.64083 
L 136.057289 180.462812 
L 136.448669 232.582309 
L 136.492156 229.404291 
L 136.535643 230.675498 
L 136.666103 198.259714 
L 136.883537 87.029079 
L 137.013997 44.443636 
L 137.187944 103.554773 
L 137.23143 85.122268 
L 137.274917 118.173657 
L 137.318404 87.029079 
L 137.361891 88.300286 
L 137.405377 95.92753 
L 137.448864 60.969331 
L 137.492351 97.834341 
L 137.535838 99.741152 
L 137.666298 135.334955 
L 137.709785 119.444864 
L 137.883731 158.852289 
L 137.927218 141.690991 
L 137.970705 142.962198 
L 138.362085 240.845156 
L 138.405572 166.479532 
L 138.492546 180.462812 
L 138.536032 164.572721 
L 138.623006 167.115136 
L 138.666493 169.021947 
L 138.709979 165.843929 
L 138.753466 167.115136 
L 138.883926 194.446092 
L 138.927413 186.183245 
L 138.9709 192.539281 
L 139.014386 183.64083 
L 139.057873 186.818848 
L 139.188333 207.158164 
L 139.36228 216.056615 
L 139.492741 206.522561 
L 139.710174 226.861877 
L 139.753661 221.777048 
L 139.797148 228.768688 
L 139.884121 221.777048 
L 140.318988 94.656323 
L 140.362475 107.368395 
L 140.405962 117.538053 
L 140.449449 114.360035 
L 140.536422 242.116364 
L 140.579909 197.62411 
L 140.666882 240.845156 
L 140.753856 149.318234 
L 140.797342 162.665911 
L 140.840829 134.063747 
L 140.884316 146.140216 
L 140.927803 157.581082 
L 140.971289 143.597802 
L 141.014776 147.411424 
L 141.188723 172.835569 
L 141.23221 169.65755 
L 141.275697 176.013587 
L 141.319183 172.835569 
L 141.36267 165.208325 
L 141.406157 176.013587 
L 141.49313 172.835569 
L 141.536617 198.895317 
L 141.580104 177.284794 
L 141.667077 182.369623 
L 141.884511 242.116364 
L 141.971484 227.49748 
L 142.145431 233.853517 
L 142.623785 144.233405 
L 142.667272 149.953838 
L 142.710759 139.148576 
L 142.754245 152.496253 
L 142.797732 151.225045 
L 142.841219 155.674271 
L 142.884706 155.038667 
L 142.928192 146.77582 
L 142.971679 147.411424 
L 143.058653 146.140216 
L 143.102139 169.021947 
L 143.145626 149.953838 
L 143.189113 158.852289 
L 143.232599 171.564361 
L 143.276086 155.038667 
L 143.319573 157.581082 
L 143.49352 182.369623 
L 143.537007 174.742379 
L 143.580493 178.556001 
L 144.145821 233.217913 
L 144.189308 231.311102 
L 144.232794 232.582309 
L 144.319768 219.870237 
L 144.406741 186.183245 
L 144.450228 189.996866 
L 144.493715 203.344543 
L 144.754635 108.003999 
L 144.798122 106.732792 
L 144.841609 132.156937 
L 144.928582 125.8009 
L 145.059042 96.563134 
L 145.146016 102.91917 
L 145.319963 141.690991 
L 145.406936 165.843929 
L 145.49391 142.326595 
L 145.537396 151.225045 
L 145.798317 187.454452 
L 145.88529 179.191605 
L 146.233184 235.760327 
L 146.494104 191.903677 
L 146.711538 109.275206 
L 146.755025 122.622882 
L 146.885485 87.029079 
L 147.015945 121.351675 
L 147.102919 92.749512 
L 147.146405 98.469944 
L 147.189892 96.563134 
L 147.233379 107.368395 
L 147.276866 77.495025 
L 147.320352 112.453224 
L 147.363839 109.275206 
L 147.450812 156.945478 
L 147.494299 143.597802 
L 147.537786 142.326595 
L 147.711733 158.216685 
L 147.798706 177.284794 
L 147.842193 172.835569 
L 147.88568 172.835569 
L 148.364034 232.582309 
L 148.537981 197.62411 
L 148.755414 114.995639 
L 148.798901 118.80926 
L 148.929361 81.308647 
L 148.972848 103.554773 
L 149.016335 105.461584 
L 149.103308 115.631242 
L 149.190282 87.029079 
L 149.233768 98.469944 
L 149.277255 111.817621 
L 149.320742 108.003999 
L 149.364229 93.385115 
L 149.581662 170.293154 
L 149.799096 134.699351 
L 149.886069 176.013587 
L 149.929556 165.208325 
L 150.01653 193.174885 
L 150.060016 168.386343 
L 150.103503 232.582309 
L 150.190477 217.963426 
L 150.233963 208.429372 
L 150.27745 216.056615 
L 150.364423 231.946706 
L 150.40791 230.039895 
L 150.494884 231.946706 
L 150.668831 183.64083 
L 150.929751 84.486665 
L 150.973238 101.647963 
L 151.016724 92.749512 
L 151.060211 69.232178 
L 151.103698 90.207097 
L 151.321132 225.590669 
L 151.364618 221.141444 
L 151.408105 222.412651 
L 151.451592 235.124724 
L 151.495079 228.768688 
L 151.625539 225.590669 
L 151.886459 130.250126 
L 151.929946 131.521333 
L 152.060406 83.215457 
L 152.27784 127.072108 
L 152.321326 108.003999 
L 152.4083 118.173657 
L 152.451787 115.631242 
L 152.625734 165.208325 
L 152.756194 155.038667 
L 152.79968 153.131856 
L 152.843167 146.140216 
L 153.060601 183.64083 
L 153.104088 168.386343 
L 153.147574 183.005227 
L 153.538955 229.404291 
L 153.582442 226.226273 
L 153.669415 227.49748 
L 153.886849 169.65755 
L 154.060796 114.360035 
L 154.104282 121.987279 
L 154.147769 105.461584 
L 154.191256 128.978918 
L 154.278229 107.368395 
L 154.40869 148.682631 
L 154.53915 108.003999 
L 154.713097 157.581082 
L 154.756583 155.674271 
L 154.843557 144.233405 
L 154.974017 174.742379 
L 155.017504 167.115136 
L 155.060991 169.021947 
L 155.104477 161.394703 
L 155.234937 184.276434 
L 155.278424 183.64083 
L 155.495858 220.50584 
L 155.539345 217.327822 
L 155.669805 230.039895 
L 155.756778 232.582309 
L 155.930725 198.895317 
L 156.017699 140.419784 
L 156.061185 149.318234 
L 156.322106 114.995639 
L 156.409079 127.072108 
L 156.452566 95.92753 
L 156.496053 114.995639 
L 156.539539 135.334955 
L 156.583026 108.639602 
L 156.80046 147.411424 
L 156.93092 155.038667 
L 156.974407 151.860649 
L 157.06138 172.835569 
L 157.104867 156.945478 
L 157.148354 156.945478 
L 157.278814 190.63247 
L 157.322301 182.369623 
L 157.670194 225.590669 
L 157.757168 233.853517 
L 157.974602 174.106776 
L 158.148548 89.571494 
L 158.192035 62.240538 
L 158.279009 71.138989 
L 158.322495 57.155709 
L 158.496442 102.91917 
L 158.713876 60.969331 
L 158.887823 122.622882 
L 158.974796 167.75074 
L 159.018283 143.597802 
L 159.06177 131.521333 
L 159.235717 167.115136 
L 159.279204 166.479532 
L 159.32269 167.75074 
L 159.366177 184.912037 
L 159.409664 169.65755 
L 159.496637 182.369623 
L 159.627097 217.963426 
L 159.757558 235.124724 
L 159.801044 231.311102 
L 159.844531 223.048255 
L 159.931505 224.319462 
L 159.974991 224.955066 
L 160.409859 46.350447 
L 160.583805 104.825981 
L 160.627292 98.469944 
L 160.714266 72.410196 
L 160.801239 73.681403 
L 161.018673 142.962198 
L 161.06216 137.877369 
L 161.105646 130.250126 
L 161.19262 154.403063 
L 161.236106 151.860649 
L 161.888407 231.946706 
L 161.975381 229.404291 
L 162.018868 228.768688 
L 162.105841 203.980146 
L 162.236301 159.487892 
L 162.279788 173.471172 
L 162.453735 96.563134 
L 162.671169 127.707711 
L 162.714655 109.91081 
L 162.801629 115.631242 
L 162.845116 116.266846 
L 162.888602 90.207097 
L 162.932089 106.097188 
L 163.106036 156.309874 
L 163.149523 151.860649 
L 163.279983 141.690991 
L 163.410443 165.843929 
L 163.45393 162.665911 
L 163.627877 181.734019 
L 163.671363 176.64919 
L 163.71485 181.734019 
L 163.888797 223.683859 
L 163.932284 224.319462 
L 164.062744 228.768688 
L 164.149717 216.692219 
L 164.497611 92.749512 
L 164.584585 101.012359 
L 164.628072 87.664683 
L 164.671558 97.834341 
L 164.758532 123.258486 
L 164.802018 95.291926 
L 164.845505 128.343315 
L 165.019452 88.300286 
L 165.193399 172.835569 
L 165.410833 139.78418 
L 165.541293 180.462812 
L 165.58478 164.572721 
L 165.671753 162.665911 
L 165.802213 188.725659 
L 165.97616 221.777048 
L 166.10662 231.311102 
L 166.280567 207.793768 
L 166.367541 154.403063 
L 166.454514 155.038667 
L 166.628461 74.95261 
L 166.671948 104.190377 
L 166.758921 98.469944 
L 166.845895 137.877369 
L 166.932868 132.156937 
L 167.019842 101.012359 
L 167.063329 108.639602 
L 167.193789 143.597802 
L 167.280762 170.293154 
L 167.324249 169.021947 
L 167.367736 157.581082 
L 167.411222 164.572721 
L 167.454709 164.572721 
L 167.541683 155.038667 
L 167.672143 196.352903 
L 167.71563 195.717299 
L 167.802603 186.818848 
L 168.10701 224.319462 
L 168.23747 233.217913 
L 168.280957 229.404291 
L 168.36793 221.777048 
L 168.585364 145.504613 
L 168.628851 150.589442 
L 168.672338 146.77582 
L 168.715824 138.512973 
L 168.759311 151.225045 
L 168.802798 142.962198 
L 168.889771 159.487892 
L 168.933258 141.690991 
L 169.020231 151.225045 
L 169.063718 156.945478 
L 169.107205 144.869009 
L 169.237665 170.293154 
L 169.368125 164.572721 
L 169.411612 183.005227 
L 169.455099 181.098416 
L 169.585559 156.945478 
L 169.716019 194.446092 
L 169.846479 188.090056 
L 169.889966 191.903677 
L 169.933453 236.395931 
L 170.020426 223.048255 
L 170.1074 225.590669 
L 170.150886 223.683859 
L 170.281347 240.209553 
L 170.36832 237.031535 
L 170.411807 235.124724 
L 170.759701 162.665911 
L 170.846674 165.208325 
L 170.890161 168.386343 
L 170.977134 160.7591 
L 171.107595 225.590669 
L 171.151081 220.50584 
L 171.325028 236.395931 
L 171.542462 176.64919 
L 171.629435 184.912037 
L 171.672922 200.802128 
L 171.846869 104.190377 
L 171.890356 105.461584 
L 171.977329 134.699351 
L 172.020816 113.724431 
L 172.107789 124.529693 
L 172.151276 120.716071 
L 172.194763 120.716071 
L 172.23825 124.529693 
L 172.281736 118.173657 
L 172.412197 149.953838 
L 172.455683 153.76746 
L 172.49917 185.547641 
L 172.542657 165.843929 
L 172.586143 165.843929 
L 172.62963 139.78418 
L 172.673117 148.047027 
L 172.716604 174.106776 
L 172.803577 169.021947 
L 173.021011 188.090056 
L 173.064498 237.031535 
L 173.151471 221.141444 
L 173.368905 230.675498 
L 173.455878 232.582309 
L 173.586338 202.708939 
L 173.716799 151.225045 
L 173.760285 155.674271 
L 173.803772 149.318234 
L 173.934232 118.173657 
L 173.977719 116.266846 
L 174.021206 129.614522 
L 174.064692 106.732792 
L 174.282126 223.048255 
L 174.325613 224.319462 
L 174.412586 235.124724 
L 174.456073 231.311102 
L 174.543046 229.404291 
L 174.803967 162.665911 
L 174.847454 178.556001 
L 174.89094 229.404291 
L 174.934427 172.835569 
L 174.977914 114.995639 
L 175.064887 137.241766 
L 175.108374 118.80926 
L 175.151861 142.962198 
L 175.195347 148.047027 
L 175.282321 134.699351 
L 175.325808 148.682631 
L 175.369294 133.428144 
L 175.412781 121.351675 
L 175.630215 183.005227 
L 175.673701 189.996866 
L 175.717188 179.191605 
L 175.760675 152.496253 
L 175.804162 177.284794 
L 175.847648 173.471172 
L 176.065082 198.259714 
L 176.152055 189.996866 
L 176.195542 236.395931 
L 176.282516 226.861877 
L 176.369489 225.590669 
L 176.456463 231.311102 
L 176.499949 227.49748 
L 176.543436 230.039895 
L 176.717383 208.429372 
L 176.847843 165.843929 
L 176.89133 168.386343 
L 177.108764 129.614522 
L 177.15225 161.394703 
L 177.239224 158.852289 
L 177.369684 176.64919 
L 177.413171 172.835569 
L 177.456657 177.920398 
L 177.500144 177.920398 
L 177.630604 191.903677 
L 177.674091 184.912037 
L 177.717578 202.708939 
L 177.804551 193.810488 
L 177.848038 195.081695 
L 177.978498 212.242993 
L 178.065472 202.708939 
L 178.239419 231.946706 
L 178.282905 167.115136 
L 178.369879 183.64083 
L 178.413366 184.912037 
L 178.587312 226.226273 
L 178.630799 228.133084 
L 178.804746 212.878597 
L 179.02218 169.021947 
L 179.065667 182.369623 
L 179.109153 168.386343 
L 179.196127 151.225045 
L 179.239613 160.123496 
L 179.2831 161.394703 
L 179.370074 185.547641 
L 179.41356 177.284794 
L 179.500534 163.937118 
L 179.544021 168.386343 
L 179.587507 163.301514 
L 179.630994 167.75074 
L 179.717968 189.996866 
L 179.761454 180.462812 
L 179.804941 177.284794 
L 179.848428 191.268074 
L 179.935401 183.64083 
L 180.109348 197.62411 
L 180.152835 194.446092 
L 180.196322 193.810488 
L 180.283295 207.158164 
L 180.326782 205.886957 
L 180.370268 200.166524 
L 180.544215 223.683859 
L 180.805136 233.853517 
L 181.022569 199.530921 
L 181.240003 167.75074 
L 181.28349 170.293154 
L 181.326977 159.487892 
L 181.41395 163.301514 
L 181.500924 172.835569 
L 181.54441 155.674271 
L 181.631384 163.937118 
L 181.67487 184.276434 
L 181.761844 181.734019 
L 181.805331 164.572721 
L 181.848817 184.912037 
L 181.892304 190.63247 
L 181.935791 173.471172 
L 181.979278 176.013587 
L 182.022764 200.802128 
L 182.066251 191.903677 
L 182.109738 184.912037 
L 182.153224 189.361263 
L 182.196711 190.63247 
L 182.370658 207.793768 
L 182.501118 198.895317 
L 182.675065 232.582309 
L 182.762039 225.590669 
L 182.805525 235.760327 
L 182.892499 232.582309 
L 182.935986 233.853517 
L 183.153419 183.005227 
L 183.196906 191.268074 
L 183.240393 188.090056 
L 183.41434 148.682631 
L 183.501313 177.920398 
L 183.631773 168.386343 
L 183.762234 151.225045 
L 183.80572 154.403063 
L 183.892694 183.005227 
L 183.979667 172.835569 
L 184.110127 163.937118 
L 184.153614 180.462812 
L 184.240588 174.106776 
L 184.327561 193.174885 
L 184.371048 189.361263 
L 184.414535 186.818848 
L 184.458021 189.361263 
L 184.631968 219.234633 
L 184.675455 218.59903 
L 184.849402 233.853517 
L 184.892889 232.582309 
L 184.936375 230.675498 
L 185.284269 150.589442 
L 185.371243 90.842701 
L 185.414729 102.283566 
L 185.458216 101.647963 
L 185.54519 97.198737 
L 185.588676 118.173657 
L 185.67565 111.817621 
L 185.80611 69.232178 
L 186.023544 136.606162 
L 186.110517 155.038667 
L 186.154004 148.682631 
L 186.284464 158.852289 
L 186.327951 154.403063 
L 186.371437 176.64919 
L 186.458411 175.377983 
L 186.501898 167.75074 
L 186.762818 216.056615 
L 186.806305 216.692219 
L 186.893278 233.853517 
L 186.980252 230.675498 
L 187.154199 201.437732 
L 187.284659 146.77582 
L 187.328146 153.76746 
L 187.502093 83.215457 
L 187.676039 111.182017 
L 187.719526 97.198737 
L 187.763013 106.097188 
L 187.8065 106.732792 
L 187.93696 80.673043 
L 188.154393 151.225045 
L 188.284854 130.250126 
L 188.502287 163.301514 
L 188.545774 160.7591 
L 188.589261 163.937118 
L 189.024128 230.039895 
L 189.198075 218.59903 
L 189.589456 77.495025 
L 189.806889 109.275206 
L 189.937349 99.105548 
L 189.980836 102.91917 
L 190.024323 96.563134 
L 190.06781 102.91917 
L 190.111296 101.647963 
L 190.19827 131.521333 
L 190.241757 149.953838 
L 190.285243 149.318234 
L 190.32873 120.716071 
L 190.372217 130.885729 
L 190.58965 174.106776 
L 190.633137 157.581082 
L 190.720111 161.394703 
L 190.937544 219.234633 
L 190.981031 218.59903 
L 191.068005 228.133084 
L 191.154978 225.590669 
L 191.198465 226.861877 
L 191.328925 210.336182 
L 191.633332 81.308647 
L 191.807279 118.173657 
L 192.024713 87.664683 
L 192.155173 108.639602 
L 192.19866 201.437732 
L 192.242146 123.894089 
L 192.32912 143.597802 
L 192.372606 141.690991 
L 192.45958 120.080468 
L 192.503067 130.250126 
L 192.546553 134.699351 
L 192.59004 156.309874 
L 192.677014 155.674271 
L 192.981421 200.802128 
L 193.155368 224.955066 
L 193.329315 231.946706 
L 193.633722 120.080468 
L 193.807669 57.155709 
L 193.981616 109.91081 
L 194.025102 112.453224 
L 194.155562 93.385115 
L 194.199049 90.842701 
L 194.372996 153.76746 
L 194.416483 146.140216 
L 194.45997 157.581082 
L 194.503456 145.504613 
L 194.546943 132.79254 
L 194.633917 137.241766 
L 194.85135 177.284794 
L 194.938324 170.293154 
L 195.112271 209.064975 
L 195.242731 222.412651 
L 195.286218 221.141444 
L 195.329704 217.963426 
L 195.460164 225.590669 
L 195.764572 139.78418 
L 195.851545 149.318234 
L 195.895032 131.521333 
L 195.982005 137.877369 
L 196.112465 155.674271 
L 196.155952 159.487892 
L 196.199439 149.318234 
L 196.286412 152.496253 
L 196.329899 158.216685 
L 196.416873 155.674271 
L 196.460359 158.852289 
L 196.503846 155.674271 
L 196.547333 156.945478 
L 196.590819 142.326595 
L 196.634306 163.937118 
L 196.764766 180.462812 
L 196.808253 172.835569 
L 196.85174 170.928758 
L 196.895227 172.835569 
L 197.069174 232.582309 
L 197.156147 221.777048 
L 197.199634 213.514201 
L 197.24312 224.319462 
L 197.286607 226.226273 
L 197.373581 222.412651 
L 197.460554 233.217913 
L 197.504041 227.49748 
L 197.547528 224.319462 
L 197.764961 166.479532 
L 197.808448 170.928758 
L 197.851935 166.479532 
L 197.895421 242.116364 
L 197.938908 204.61575 
L 197.982395 134.699351 
L 198.069368 160.123496 
L 198.112855 148.682631 
L 198.156342 152.496253 
L 198.286802 167.115136 
L 198.417262 139.78418 
L 198.460749 145.504613 
L 198.591209 170.293154 
L 198.634696 148.047027 
L 198.678183 160.7591 
L 198.721669 170.293154 
L 198.765156 158.852289 
L 198.808643 160.123496 
L 198.85213 156.309874 
L 198.939103 181.098416 
L 198.98259 172.835569 
L 199.286997 239.573949 
L 199.37397 93.385115 
L 199.417457 95.92753 
L 199.547917 102.91917 
L 199.591404 99.105548 
L 199.634891 98.469944 
L 199.678377 99.105548 
L 199.808838 150.589442 
L 199.852324 141.055387 
L 199.939298 128.978918 
L 199.982785 136.606162 
L 200.156731 176.013587 
L 200.287192 182.369623 
L 200.330678 177.920398 
L 200.374165 182.369623 
L 200.591599 223.683859 
L 200.765546 230.675498 
L 200.896006 199.530921 
L 201.069953 153.131856 
L 201.11344 162.030307 
L 201.287387 91.478305 
L 201.330873 89.571494 
L 201.37436 127.072108 
L 201.461333 118.173657 
L 201.63528 94.020719 
L 201.678767 97.198737 
L 201.765741 123.258486 
L 201.809227 89.571494 
L 201.852714 134.699351 
L 201.896201 148.047027 
L 201.983174 142.962198 
L 202.026661 123.894089 
L 202.070148 142.962198 
L 202.200608 172.835569 
L 202.331068 167.75074 
L 202.635475 223.048255 
L 202.678962 220.50584 
L 202.809422 233.217913 
L 202.896396 228.133084 
L 202.983369 193.174885 
L 203.113829 144.233405 
L 203.157316 162.665911 
L 203.200803 135.334955 
L 203.244289 91.478305 
L 203.331263 101.647963 
L 203.461723 86.393476 
L 203.50521 110.546413 
L 203.548697 103.554773 
L 203.63567 104.825981 
L 203.679157 87.029079 
L 203.722643 88.300286 
L 203.76613 71.774592 
L 203.89659 126.436504 
L 203.940077 123.258486 
L 203.983564 144.869009 
L 204.070537 133.428144 
L 204.114024 106.732792 
L 204.157511 129.614522 
L 204.331458 176.013587 
L 204.374944 161.394703 
L 204.418431 179.191605 
L 204.505405 185.547641 
L 204.548891 182.369623 
L 204.766325 228.768688 
L 204.809812 228.133084 
L 204.853299 231.311102 
L 204.896785 230.675498 
L 204.940272 228.768688 
L 205.070732 184.276434 
L 205.418626 71.774592 
L 205.462113 77.495025 
L 205.5056 66.689763 
L 205.592573 120.080468 
L 205.63606 119.444864 
L 205.679546 119.444864 
L 205.76652 85.757872 
L 205.853493 97.198737 
L 205.89698 90.842701 
L 206.02744 147.411424 
L 206.070927 145.504613 
L 206.114414 123.894089 
L 206.201387 131.521333 
L 206.331847 162.030307 
L 206.375334 160.123496 
L 206.418821 156.945478 
L 206.505794 181.098416 
L 206.549281 179.827208 
L 206.592768 173.471172 
L 206.636255 182.369623 
L 207.027635 231.946706 
L 207.158095 197.62411 
L 207.462502 71.138989 
L 207.636449 116.266846 
L 207.723423 95.92753 
L 207.810396 121.351675 
L 207.853883 116.90245 
L 207.89737 117.538053 
L 207.984343 99.105548 
L 208.02783 104.190377 
L 208.201777 162.665911 
L 208.245264 137.877369 
L 208.28875 138.512973 
L 208.419211 162.665911 
L 208.462697 162.665911 
L 208.506184 150.589442 
L 208.593157 179.191605 
L 208.636644 172.835569 
L 208.897565 210.336182 
L 208.984538 226.861877 
L 209.071512 223.048255 
L 209.114998 225.590669 
L 209.332432 193.810488 
L 209.462892 132.79254 
L 209.506379 137.241766 
L 209.549866 165.208325 
L 209.593352 160.7591 
L 209.636839 148.682631 
L 209.723812 150.589442 
L 209.767299 153.76746 
L 209.854273 155.674271 
L 209.897759 132.79254 
L 209.984733 155.674271 
L 210.02822 139.78418 
L 210.071706 150.589442 
L 210.115193 150.589442 
L 210.15868 161.394703 
L 210.202167 151.225045 
L 210.245653 151.860649 
L 210.332627 179.827208 
L 210.376113 155.674271 
L 210.463087 165.208325 
L 210.55006 170.928758 
L 210.724007 195.081695 
L 210.767494 186.818848 
L 210.941441 213.514201 
L 211.115388 231.946706 
L 211.158875 228.768688 
L 211.202361 236.395931 
L 211.245848 228.768688 
L 211.289335 228.768688 
L 211.332822 225.590669 
L 211.506768 162.030307 
L 211.550255 163.937118 
L 211.593742 184.276434 
L 211.637229 169.65755 
L 211.680715 169.65755 
L 211.767689 160.7591 
L 211.811176 162.030307 
L 211.854662 165.208325 
L 211.898149 154.403063 
L 211.941636 169.021947 
L 211.985123 179.191605 
L 212.072096 177.920398 
L 212.246043 151.860649 
L 212.28953 162.665911 
L 212.41999 175.377983 
L 212.55045 158.216685 
L 212.637424 169.65755 
L 212.724397 185.547641 
L 212.767884 167.75074 
L 212.81137 179.191605 
L 212.985317 215.421011 
L 213.159264 230.675498 
L 213.246238 234.48912 
L 213.420185 210.971786 
L 213.724592 74.95261 
L 213.811565 122.622882 
L 213.898539 119.444864 
L 213.942025 128.343315 
L 214.028999 90.207097 
L 214.072486 95.92753 
L 214.115972 108.003999 
L 214.159459 107.368395 
L 214.246433 87.029079 
L 214.42038 153.131856 
L 214.55084 124.529693 
L 214.768273 177.920398 
L 214.81176 178.556001 
L 214.855247 168.386343 
L 214.898734 180.462812 
L 214.94222 183.005227 
L 215.203141 228.768688 
L 215.246627 222.412651 
L 215.290114 230.039895 
L 215.333601 232.582309 
L 215.377088 230.039895 
L 215.420574 228.133084 
L 215.898928 101.012359 
L 216.029389 125.165297 
L 216.159849 122.622882 
L 216.246822 102.283566 
L 216.420769 141.690991 
L 216.551229 160.7591 
L 216.594716 142.962198 
L 216.638203 146.77582 
L 216.68169 200.802128 
L 216.725176 135.970558 
L 216.899123 196.352903 
L 216.94261 156.945478 
L 217.029583 163.937118 
L 217.116557 161.394703 
L 217.160044 196.988506 
L 217.377477 233.217913 
L 217.507937 215.421011 
L 217.638398 180.462812 
L 217.855831 73.045799 
L 217.899318 96.563134 
L 217.942805 78.766232 
L 218.029778 66.05416 
L 218.160238 165.843929 
L 218.203725 143.597802 
L 218.377672 88.93589 
L 218.595106 156.309874 
L 218.464646 88.300286 
L 218.638593 152.496253 
L 218.725566 124.529693 
L 218.769053 135.334955 
L 218.943 173.471172 
L 219.029973 161.394703 
L 219.07346 167.75074 
L 219.116947 170.928758 
L 219.160433 170.293154 
L 219.290894 209.064975 
L 219.508327 228.768688 
L 219.551814 228.133084 
L 219.595301 227.49748 
L 219.682274 202.073335 
L 219.769248 170.293154 
L 219.899708 242.116364 
L 219.986681 85.757872 
L 220.030168 87.664683 
L 220.160628 111.182017 
L 220.204115 109.275206 
L 220.291088 97.198737 
L 220.334575 110.546413 
L 220.378062 101.012359 
L 220.421549 98.469944 
L 220.552009 115.631242 
L 220.595495 108.639602 
L 220.638982 152.496253 
L 220.725956 150.589442 
L 220.856416 132.156937 
L 220.899903 134.063747 
L 220.986876 174.106776 
L 221.07385 168.386343 
L 221.552204 228.768688 
L 221.59569 226.226273 
L 221.639177 228.133084 
L 221.682664 229.404291 
L 222.030558 111.182017 
L 222.247991 135.970558 
L 222.334965 113.724431 
L 222.378451 132.79254 
L 222.421938 111.817621 
L 222.465425 120.716071 
L 222.508912 116.266846 
L 222.552398 112.453224 
L 222.769832 180.462812 
L 222.813319 158.852289 
L 222.943779 145.504613 
L 223.117726 181.098416 
L 223.683053 230.039895 
L 223.770027 225.590669 
L 223.857 210.336182 
L 224.030947 133.428144 
L 224.161407 160.123496 
L 224.248381 130.885729 
L 224.291868 147.411424 
L 224.378841 149.953838 
L 224.422328 142.962198 
L 224.465815 153.131856 
L 224.509301 148.682631 
L 224.683248 235.124724 
L 224.726735 228.768688 
L 224.770222 235.124724 
L 224.813708 235.760327 
L 224.900682 164.572721 
L 224.987655 165.208325 
L 225.031142 162.030307 
L 225.292063 202.073335 
L 225.335549 194.446092 
L 225.379036 200.166524 
L 225.466009 203.980146 
L 225.552983 223.683859 
L 225.59647 219.234633 
L 225.770417 233.217913 
L 225.813903 234.48912 
L 226.031337 195.081695 
L 226.161797 160.7591 
L 226.205284 153.76746 
L 226.248771 165.843929 
L 226.292257 142.962198 
L 226.335744 148.047027 
L 226.379231 156.945478 
L 226.422718 156.309874 
L 226.466204 144.869009 
L 226.509691 146.140216 
L 226.553178 160.123496 
L 226.596664 158.852289 
L 226.727125 147.411424 
L 226.944558 174.106776 
L 227.075019 156.945478 
L 227.161992 179.827208 
L 227.205479 166.479532 
L 227.422912 198.895317 
L 227.466399 191.903677 
L 227.509886 191.268074 
L 227.683833 226.226273 
L 227.727319 224.319462 
L 227.770806 233.217913 
L 227.85778 230.675498 
L 227.98824 217.327822 
L 228.336134 83.851061 
L 228.37962 99.741152 
L 228.466594 90.207097 
L 228.640541 118.173657 
L 228.727514 98.469944 
L 228.771001 114.995639 
L 228.814488 90.207097 
L 228.901461 112.453224 
L 229.031921 143.597802 
L 229.205868 111.817621 
L 229.336329 176.013587 
L 229.379815 174.106776 
L 229.423302 194.446092 
L 229.510275 186.818848 
L 229.553762 186.183245 
L 229.597249 188.090056 
L 229.814683 233.217913 
L 229.858169 219.870237 
L 229.945143 224.955066 
L 229.98863 230.675498 
L 230.032116 224.955066 
L 230.51047 84.486665 
L 230.553957 98.469944 
L 230.597444 123.258486 
L 230.684417 115.631242 
L 230.727904 116.90245 
L 230.771391 109.275206 
L 230.814877 113.724431 
L 230.858364 123.258486 
L 230.901851 98.469944 
L 230.945338 123.894089 
L 231.119285 170.928758 
L 231.162771 162.665911 
L 231.249745 129.614522 
L 231.293232 148.047027 
L 231.380205 151.225045 
L 231.510665 176.64919 
L 231.597639 167.75074 
L 231.989019 235.124724 
L 232.293426 128.978918 
L 232.423887 104.825981 
L 232.467373 104.190377 
L 232.554347 88.93589 
L 232.684807 114.995639 
L 232.77178 114.995639 
L 232.902241 89.571494 
L 233.119674 163.937118 
L 233.163161 146.140216 
L 233.293621 132.79254 
L 233.467568 184.276434 
L 233.511055 188.090056 
L 233.554542 180.462812 
L 233.598028 181.098416 
L 233.685002 186.183245 
L 233.815462 221.141444 
L 233.945922 219.234633 
L 234.076382 230.039895 
L 234.206843 209.700579 
L 234.293816 142.326595 
L 234.380789 145.504613 
L 234.554736 95.291926 
L 234.77217 133.428144 
L 234.859144 113.724431 
L 234.90263 123.894089 
L 234.989604 240.845156 
L 235.120064 124.529693 
L 235.207037 178.556001 
L 235.250524 172.199965 
L 235.337498 153.131856 
L 235.380984 157.581082 
L 235.424471 158.852289 
L 235.598418 217.963426 
L 235.728878 183.64083 
L 236.120259 237.667138 
L 236.294206 193.810488 
L 236.598613 102.283566 
L 236.77256 134.699351 
L 236.816046 132.79254 
L 236.859533 135.334955 
L 236.90302 147.411424 
L 236.989993 121.351675 
L 237.03348 137.241766 
L 237.120454 134.699351 
L 237.207427 168.386343 
L 237.250914 153.131856 
L 237.2944 172.199965 
L 237.337887 170.928758 
L 237.424861 156.309874 
L 237.468347 163.937118 
L 237.642294 196.352903 
L 237.685781 182.369623 
L 237.729268 196.988506 
L 237.772755 193.174885 
L 237.903215 213.514201 
L 237.946701 203.980146 
L 238.033675 220.50584 
L 238.077162 208.429372 
L 238.120648 223.048255 
L 238.164135 231.311102 
L 238.251109 228.133084 
L 238.294595 229.404291 
L 238.555516 158.852289 
L 238.642489 162.030307 
L 238.729463 171.564361 
L 238.772949 166.479532 
L 238.816436 150.589442 
L 238.859923 161.394703 
L 238.90341 170.928758 
L 238.946896 158.216685 
L 239.077357 165.843929 
L 239.120843 156.945478 
L 239.251303 189.996866 
L 239.338277 170.928758 
L 239.381764 178.556001 
L 239.512224 193.174885 
L 239.555711 180.462812 
L 239.686171 204.61575 
L 239.729657 182.369623 
L 239.773144 209.064975 
L 239.816631 198.259714 
L 239.860118 203.344543 
L 240.077551 238.938346 
L 240.121038 237.667138 
L 240.164525 231.311102 
L 240.208012 232.582309 
L 240.294985 231.946706 
L 240.338472 235.760327 
L 240.599392 198.895317 
L 240.686366 184.912037 
L 240.729852 195.081695 
L 240.816826 190.63247 
L 240.860313 182.369623 
L 240.903799 196.988506 
L 240.990773 194.446092 
L 241.16472 178.556001 
L 241.251693 205.251353 
L 241.29518 190.63247 
L 241.338667 191.903677 
L 241.382153 206.522561 
L 241.42564 203.980146 
L 241.512613 191.903677 
L 241.5561 198.895317 
L 241.599587 198.895317 
L 241.643074 202.073335 
L 241.773534 219.870237 
L 241.817021 218.59903 
L 241.990968 237.031535 
L 242.034454 168.386343 
L 242.077941 181.734019 
L 242.251888 227.49748 
L 242.382348 231.946706 
L 242.469322 221.141444 
L 242.512808 217.327822 
L 242.730242 134.699351 
L 242.947676 78.130628 
L 243.121623 113.724431 
L 243.208596 98.469944 
L 243.295569 83.215457 
L 243.339056 89.571494 
L 243.382543 86.393476 
L 243.469516 104.825981 
L 243.599977 139.148576 
L 243.643463 132.156937 
L 243.68695 137.241766 
L 243.773924 160.7591 
L 243.81741 155.674271 
L 243.860897 152.496253 
L 243.991357 188.725659 
L 244.034844 171.564361 
L 244.078331 184.276434 
L 244.382738 228.768688 
L 244.600171 210.336182 
L 244.991552 87.029079 
L 245.208986 121.987279 
L 245.252472 91.478305 
L 245.339446 100.376755 
L 245.382933 101.647963 
L 245.426419 109.275206 
L 245.469906 107.368395 
L 245.513393 94.656323 
L 245.68734 162.030307 
L 245.730826 135.970558 
L 245.8178 149.953838 
L 245.861287 149.318234 
L 246.035234 179.191605 
L 246.07872 159.487892 
L 246.122207 174.106776 
L 246.513588 228.768688 
L 246.557074 224.955066 
L 246.687535 206.522561 
L 247.078915 65.418556 
L 247.122402 71.138989 
L 247.165889 72.410196 
L 247.209375 68.596574 
L 247.296349 113.088828 
L 247.339836 106.732792 
L 247.383322 114.995639 
L 247.426809 83.215457 
L 247.513782 85.122268 
L 247.600756 88.93589 
L 247.774703 143.597802 
L 247.861676 132.156937 
L 247.992137 176.013587 
L 248.035623 168.386343 
L 248.07911 161.394703 
L 248.253057 196.352903 
L 248.296544 202.708939 
L 248.34003 191.903677 
L 248.383517 202.708939 
L 248.557464 225.590669 
L 248.600951 222.412651 
L 248.644438 225.590669 
L 248.687924 228.133084 
L 248.731411 224.319462 
L 248.905358 167.75074 
L 249.035818 72.410196 
L 249.079305 75.588214 
L 249.122792 78.130628 
L 249.209765 66.05416 
L 249.383712 127.072108 
L 249.427199 124.529693 
L 249.470685 104.190377 
L 249.514172 113.724431 
L 249.601146 132.156937 
L 249.644632 120.716071 
L 249.688119 116.266846 
L 249.731606 118.173657 
L 249.818579 146.140216 
L 249.862066 141.055387 
L 249.949039 130.250126 
L 250.166473 183.64083 
L 250.296933 169.021947 
L 250.47088 214.785408 
L 250.514367 210.336182 
L 250.731801 234.48912 
L 250.862261 207.793768 
L 251.036208 121.987279 
L 251.079695 82.579854 
L 251.166668 86.393476 
L 251.210155 86.393476 
L 251.253641 82.579854 
L 251.427588 123.894089 
L 251.471075 122.622882 
L 251.514562 132.156937 
L 251.558049 127.072108 
L 251.645022 118.80926 
L 251.688509 104.825981 
L 251.731995 123.894089 
L 251.775482 117.538053 
L 251.949429 169.65755 
L 251.992916 145.504613 
L 252.036403 167.115136 
L 252.079889 167.115136 
L 252.253836 189.996866 
L 252.297323 174.742379 
L 252.34081 192.539281 
L 252.427783 202.073335 
L 252.47127 228.768688 
L 252.558243 224.955066 
L 252.60173 220.50584 
L 252.645217 222.412651 
L 252.688704 226.861877 
L 252.73219 224.955066 
L 252.819164 222.412651 
L 252.862651 228.768688 
L 252.906137 225.590669 
L 253.254031 120.716071 
L 253.297518 148.047027 
L 253.384491 137.241766 
L 253.558438 172.199965 
L 253.732385 151.860649 
L 253.775872 154.403063 
L 253.819359 176.013587 
L 253.862845 163.937118 
L 253.906332 163.301514 
L 253.993306 169.021947 
L 254.167252 203.980146 
L 254.210739 207.158164 
L 254.297713 206.522561 
L 254.341199 207.158164 
L 254.60212 232.582309 
L 254.645607 231.311102 
L 254.689093 221.777048 
L 254.73258 231.311102 
L 254.86304 237.667138 
L 254.906527 231.946706 
L 254.9935 232.582309 
L 255.036987 233.853517 
L 255.210934 198.895317 
L 255.254421 199.530921 
L 255.341394 191.268074 
L 255.384881 210.336182 
L 255.428368 192.539281 
L 255.471854 191.903677 
L 255.515341 184.912037 
L 255.558828 195.717299 
L 255.689288 209.700579 
L 255.732775 204.61575 
L 255.819748 195.717299 
L 255.950208 205.251353 
L 255.993695 198.895317 
L 256.167642 224.319462 
L 256.428563 232.582309 
L 256.472049 225.590669 
L 256.559023 228.768688 
L 256.689483 231.946706 
L 256.73297 230.039895 
L 256.906917 238.302742 
L 256.950403 240.845156 
L 256.99389 237.667138 
L 257.037377 235.124724 
L 257.080863 236.395931 
L 257.12435 240.209553 
L 257.167837 237.667138 
L 257.298297 229.404291 
L 257.428757 212.878597 
L 257.472244 216.056615 
L 257.515731 212.242993 
L 257.559218 204.61575 
L 257.602704 206.522561 
L 257.646191 214.785408 
L 257.689678 210.336182 
L 257.733164 209.700579 
L 257.776651 216.692219 
L 257.863625 216.056615 
L 257.994085 197.62411 
L 258.037572 212.878597 
L 258.124545 212.242993 
L 258.168032 196.988506 
L 258.211519 210.336182 
L 258.298492 209.700579 
L 258.341979 214.785408 
L 258.385465 228.768688 
L 258.472439 227.49748 
L 258.515926 219.870237 
L 258.559412 228.133084 
L 258.602899 220.50584 
L 258.689873 229.404291 
L 258.733359 226.226273 
L 258.820333 236.395931 
L 258.86382 233.217913 
L 258.907306 232.582309 
L 258.950793 240.209553 
L 259.037766 238.938346 
L 259.12474 237.667138 
L 259.168227 240.209553 
L 259.211713 236.395931 
L 259.298687 233.853517 
L 259.429147 205.251353 
L 259.472634 207.158164 
L 259.51612 212.242993 
L 259.559607 205.251353 
L 259.646581 206.522561 
L 259.733554 195.717299 
L 259.777041 201.437732 
L 259.820528 207.793768 
L 259.864014 199.530921 
L 259.994475 205.886957 
L 260.124935 193.174885 
L 260.255395 206.522561 
L 260.298882 203.980146 
L 260.429342 216.692219 
L 260.472829 210.336182 
L 260.516315 214.785408 
L 260.603289 220.50584 
L 260.646776 212.242993 
L 260.690262 216.692219 
L 260.777236 230.039895 
L 260.820722 224.319462 
L 260.864209 224.319462 
L 261.081643 238.938346 
L 261.12513 239.573949 
L 261.168616 237.031535 
L 261.212103 238.302742 
L 261.299076 240.209553 
L 261.777431 174.106776 
L 261.864404 184.912037 
L 261.951377 182.369623 
L 261.994864 209.064975 
L 262.038351 188.090056 
L 262.125324 189.361263 
L 262.168811 188.725659 
L 262.212298 184.912037 
L 262.429732 212.878597 
L 262.516705 206.522561 
L 262.647165 219.234633 
L 262.690652 207.158164 
L 262.734139 213.514201 
L 262.908086 225.590669 
L 263.038546 231.311102 
L 263.082032 239.573949 
L 263.169006 237.031535 
L 263.212493 237.031535 
L 263.299466 237.667138 
L 263.38644 233.217913 
L 263.429926 233.217913 
L 263.473413 232.582309 
L 263.560387 228.133084 
L 263.821307 184.276434 
L 263.864794 180.462812 
L 264.082227 203.344543 
L 264.212688 184.912037 
L 264.256174 195.717299 
L 264.299661 187.454452 
L 264.343148 179.827208 
L 264.517095 208.429372 
L 264.560581 207.793768 
L 264.647555 212.242993 
L 264.734528 205.251353 
L 264.951962 224.955066 
L 264.995449 223.048255 
L 265.125909 234.48912 
L 265.169396 231.946706 
L 265.256369 238.938346 
L 265.299856 233.853517 
L 265.343343 237.031535 
L 265.430316 238.302742 
L 265.995644 172.835569 
L 266.082617 195.081695 
L 266.126104 188.725659 
L 266.213077 193.174885 
L 266.256564 189.361263 
L 266.300051 196.988506 
L 266.343537 193.810488 
L 266.387024 184.276434 
L 266.430511 196.352903 
L 266.517484 195.081695 
L 266.560971 208.429372 
L 266.604458 202.073335 
L 266.647945 200.166524 
L 266.821891 223.048255 
L 266.952352 216.056615 
L 267.039325 229.404291 
L 267.082812 219.234633 
L 267.126299 224.955066 
L 267.256759 232.582309 
L 267.517679 238.938346 
L 267.648139 232.582309 
L 267.865573 196.352903 
L 267.996033 180.462812 
L 268.03952 183.64083 
L 268.083007 195.717299 
L 268.126493 183.64083 
L 268.256954 193.810488 
L 268.343927 190.63247 
L 268.430901 181.734019 
L 268.474387 172.835569 
L 268.517874 194.446092 
L 268.604847 186.183245 
L 268.735308 206.522561 
L 268.778794 198.895317 
L 268.822281 196.988506 
L 268.865768 203.344543 
L 268.909255 201.437732 
L 268.952741 192.539281 
L 269.083201 224.319462 
L 269.126688 222.412651 
L 269.170175 212.878597 
L 269.213662 220.50584 
L 269.387609 231.311102 
L 269.431095 235.124724 
L 269.474582 234.48912 
L 269.605042 230.039895 
L 269.648529 231.946706 
L 269.778989 193.174885 
L 269.909449 134.699351 
L 269.952936 148.682631 
L 269.996423 150.589442 
L 270.03991 130.885729 
L 270.083396 144.869009 
L 270.126883 146.77582 
L 270.344317 173.471172 
L 270.387803 141.690991 
L 270.474777 143.597802 
L 270.605237 160.123496 
L 270.648724 191.268074 
L 270.735697 182.369623 
L 270.779184 169.65755 
L 270.822671 172.199965 
L 271.083591 195.081695 
L 271.127078 195.081695 
L 271.301025 217.327822 
L 271.518458 238.302742 
L 271.605432 230.675498 
L 271.648919 232.582309 
L 271.735892 226.226273 
L 271.779379 221.777048 
L 271.996813 108.639602 
L 272.083786 100.376755 
L 272.344706 157.581082 
L 272.388193 156.309874 
L 272.518653 133.428144 
L 272.6926 160.7591 
L 272.736087 149.318234 
L 272.866547 193.174885 
L 272.997007 169.65755 
L 273.040494 195.717299 
L 273.127468 189.996866 
L 273.170954 185.547641 
L 273.301414 221.141444 
L 273.344901 206.522561 
L 273.388388 216.692219 
L 273.431875 218.59903 
L 273.475361 215.421011 
L 273.649308 233.853517 
L 273.736282 228.768688 
L 273.910229 216.056615 
L 274.127662 82.579854 
L 274.301609 111.182017 
L 274.519043 136.606162 
L 274.56253 107.368395 
L 274.649503 117.538053 
L 274.779963 167.115136 
L 274.82345 156.309874 
L 274.910424 160.123496 
L 274.997397 163.937118 
L 275.127857 191.903677 
L 275.171344 165.843929 
L 275.214831 193.810488 
L 275.258317 183.64083 
L 275.301804 188.725659 
L 275.432264 205.251353 
L 275.736671 233.853517 
L 275.954105 214.785408 
L 276.258512 73.045799 
L 276.345486 86.393476 
L 276.519433 153.131856 
L 276.649893 113.088828 
L 276.69338 118.173657 
L 276.736866 102.91917 
L 276.780353 116.90245 
L 276.997787 155.038667 
L 277.041273 135.970558 
L 277.08476 165.208325 
L 277.171734 183.005227 
L 277.21522 167.115136 
L 277.258707 169.65755 
L 277.476141 203.980146 
L 277.519627 196.988506 
L 277.563114 205.251353 
L 277.824035 232.582309 
L 277.911008 229.404291 
L 277.954495 231.946706 
L 278.084955 191.268074 
L 278.302389 84.486665 
L 278.345875 75.588214 
L 278.389362 102.283566 
L 278.432849 72.410196 
L 278.606796 146.140216 
L 278.693769 132.79254 
L 278.737256 106.732792 
L 278.780743 121.351675 
L 278.824229 123.258486 
L 278.867716 108.639602 
L 278.998176 139.78418 
L 279.041663 134.699351 
L 279.302583 179.827208 
L 279.34607 167.115136 
L 279.433044 200.166524 
L 279.47653 197.62411 
L 279.563504 200.166524 
L 279.606991 196.352903 
L 279.824424 228.768688 
L 279.998371 231.946706 
L 280.128831 210.336182 
L 280.433239 74.317007 
L 280.476725 101.647963 
L 280.520212 98.469944 
L 280.563699 99.741152 
L 280.650672 132.156937 
L 280.781132 123.894089 
L 280.868106 81.308647 
L 280.911593 106.097188 
L 281.042053 148.682631 
L 281.172513 148.047027 
L 281.216 142.326595 
L 281.259486 144.869009 
L 281.433433 184.912037 
L 281.47692 187.454452 
L 281.520407 177.920398 
L 281.563894 181.734019 
L 281.781327 216.692219 
L 281.824814 212.878597 
L 281.868301 217.327822 
L 282.042248 231.946706 
L 282.172708 222.412651 
L 282.216195 225.590669 
L 282.477115 165.843929 
L 282.520602 170.928758 
L 282.607575 140.419784 
L 282.694549 151.225045 
L 282.781522 155.038667 
L 282.825009 154.403063 
L 282.868495 170.293154 
L 282.911982 161.394703 
L 282.955469 160.7591 
L 283.042442 163.301514 
L 283.085929 149.318234 
L 283.172903 170.293154 
L 283.216389 168.386343 
L 283.303363 164.572721 
L 283.34685 166.479532 
L 283.433823 195.717299 
L 283.564283 194.446092 
L 283.60777 183.64083 
L 283.651257 186.818848 
L 283.694743 207.158164 
L 283.781717 205.251353 
L 284.042637 237.031535 
L 284.129611 235.124724 
L 284.260071 226.226273 
L 284.303558 224.319462 
L 284.564478 172.835569 
L 284.607965 180.462812 
L 284.738425 155.674271 
L 284.781912 172.835569 
L 284.825398 172.199965 
L 284.912372 156.945478 
L 284.999345 185.547641 
L 285.042832 162.030307 
L 285.129806 171.564361 
L 285.173292 166.479532 
L 285.260266 181.734019 
L 285.303752 176.013587 
L 285.347239 174.742379 
L 285.390726 176.64919 
L 285.434213 190.63247 
L 285.477699 178.556001 
L 285.521186 179.827208 
L 285.651646 201.437732 
L 285.695133 197.62411 
L 285.73862 195.081695 
L 285.782107 203.344543 
L 285.825593 200.802128 
L 285.86908 196.988506 
L 286.043027 228.133084 
L 286.086514 228.768688 
L 286.173487 237.031535 
L 286.390921 216.692219 
L 286.651841 109.275206 
L 286.695328 92.749512 
L 286.738815 109.91081 
L 286.782301 99.741152 
L 286.912762 144.869009 
L 286.999735 130.250126 
L 287.086708 119.444864 
L 287.130195 140.419784 
L 287.173682 134.063747 
L 287.217169 123.258486 
L 287.391116 175.377983 
L 287.434602 165.843929 
L 287.478089 177.284794 
L 287.521576 178.556001 
L 287.565063 172.199965 
L 287.652036 198.259714 
L 287.739009 193.810488 
L 287.782496 174.106776 
L 287.825983 203.344543 
L 287.86947 199.530921 
L 287.912956 202.708939 
L 287.956443 202.073335 
L 288.13039 230.675498 
L 288.173877 233.217913 
L 288.217364 227.49748 
L 288.26085 230.039895 
L 288.347824 229.404291 
L 288.39131 233.217913 
L 288.521771 196.988506 
L 288.782691 98.469944 
L 288.869664 114.360035 
L 288.913151 103.554773 
L 288.956638 111.817621 
L 289.087098 135.970558 
L 289.174072 106.732792 
L 289.217558 119.444864 
L 289.261045 108.003999 
L 289.304532 121.351675 
L 289.348019 117.538053 
L 289.434992 162.030307 
L 289.478479 146.77582 
L 289.521965 138.512973 
L 289.739399 191.268074 
L 289.782886 174.742379 
L 289.869859 182.369623 
L 289.913346 171.564361 
L 289.956833 187.454452 
L 290.043806 197.62411 
L 290.304727 233.217913 
L 290.348213 233.853517 
L 290.3917 238.302742 
L 290.826567 95.92753 
L 290.913541 116.90245 
L 290.957028 108.639602 
L 291.087488 146.140216 
L 291.130975 145.504613 
L 291.174461 146.140216 
L 291.348408 120.080468 
L 291.478868 151.860649 
L 291.565842 151.225045 
L 291.609329 165.843929 
L 291.696302 146.77582 
L 291.739789 157.581082 
L 291.783276 177.920398 
L 291.870249 170.293154 
L 291.957222 182.369623 
L 292.131169 239.573949 
L 292.218143 226.226273 
L 292.26163 223.683859 
L 292.305116 224.955066 
L 292.479063 236.395931 
L 292.609523 224.955066 
L 292.957417 111.182017 
L 293.000904 140.419784 
L 293.044391 126.436504 
L 293.087877 120.080468 
L 293.131364 155.038667 
L 293.218338 146.77582 
L 293.305311 116.90245 
L 293.348798 146.140216 
L 293.435771 144.233405 
L 293.479258 155.674271 
L 293.522745 146.140216 
L 293.566232 145.504613 
L 293.653205 167.115136 
L 293.696692 161.394703 
L 293.740178 165.208325 
L 293.783665 161.394703 
L 293.914125 189.996866 
L 293.957612 188.090056 
L 294.175046 209.064975 
L 294.218533 187.454452 
L 294.262019 207.793768 
L 294.435966 231.311102 
L 294.52294 236.395931 
L 294.6534 228.768688 
L 294.696887 233.217913 
L 294.957807 187.454452 
L 295.001294 196.352903 
L 295.04478 195.717299 
L 295.175241 162.665911 
L 295.349188 198.895317 
L 295.479648 188.725659 
L 295.523134 191.903677 
L 295.566621 191.268074 
L 295.610108 186.183245 
L 295.653595 187.454452 
L 295.697081 189.996866 
L 295.740568 183.64083 
L 295.784055 189.996866 
L 295.827542 190.63247 
L 295.914515 208.429372 
L 295.958002 195.717299 
L 296.044975 212.242993 
L 296.088462 198.895317 
L 296.436356 238.302742 
L 296.566816 235.124724 
L 296.65379 238.938346 
L 296.78425 225.590669 
L 296.958197 196.352903 
L 297.001683 196.352903 
L 297.04517 195.717299 
L 297.132144 158.852289 
L 297.17563 173.471172 
L 297.219117 180.462812 
L 297.262604 162.030307 
L 297.30609 181.098416 
L 297.393064 193.810488 
L 297.436551 183.64083 
L 297.480037 192.539281 
L 297.567011 182.369623 
L 297.653984 186.183245 
L 297.827931 207.158164 
L 297.914905 210.971786 
L 297.958391 205.251353 
L 298.132338 229.404291 
L 298.175825 226.861877 
L 298.349772 237.667138 
L 298.393259 177.284794 
L 298.480232 206.522561 
L 298.654179 228.768688 
L 298.697666 231.311102 
L 298.741153 228.133084 
L 298.784639 228.133084 
L 298.828126 226.861877 
L 298.958586 194.446092 
L 299.17602 108.003999 
L 299.30648 88.300286 
L 299.43694 132.156937 
L 299.480427 128.978918 
L 299.523914 128.978918 
L 299.567401 124.529693 
L 299.654374 82.579854 
L 299.697861 101.647963 
L 299.741347 108.639602 
L 299.784834 94.020719 
L 299.915294 150.589442 
L 299.958781 137.877369 
L 300.002268 156.945478 
L 300.089241 155.674271 
L 300.132728 154.403063 
L 300.219702 179.191605 
L 300.350162 176.64919 
L 300.393648 170.293154 
L 300.611082 212.242993 
L 300.828516 231.311102 
L 300.915489 221.777048 
L 300.958976 227.49748 
L 301.30687 102.91917 
L 301.350357 103.554773 
L 301.43733 81.94425 
L 301.524303 112.453224 
L 301.56779 95.92753 
L 301.654764 112.453224 
L 301.69825 106.732792 
L 301.741737 101.012359 
L 301.785224 109.91081 
L 301.828711 91.478305 
L 301.959171 142.326595 
L 302.002658 140.419784 
L 302.307065 174.742379 
L 302.350551 158.216685 
L 302.394038 170.928758 
L 302.828905 232.582309 
L 302.959366 224.319462 
L 303.002852 224.955066 
L 303.046339 220.50584 
L 303.350746 84.486665 
L 303.43772 87.664683 
L 303.481206 97.834341 
L 303.524693 79.401836 
L 303.655153 128.978918 
L 303.785614 95.92753 
L 303.8291 113.724431 
L 303.872587 86.393476 
L 303.95956 107.368395 
L 304.090021 151.860649 
L 304.133507 149.318234 
L 304.176994 130.250126 
L 304.220481 135.334955 
L 304.394428 170.293154 
L 304.481401 172.199965 
L 304.611861 188.725659 
L 304.655348 188.090056 
L 304.959755 231.946706 
L 305.090215 222.412651 
L 305.133702 223.048255 
L 305.438109 114.995639 
L 305.481596 103.554773 
L 305.525083 111.817621 
L 305.56857 124.529693 
L 305.612056 121.987279 
L 305.655543 115.631242 
L 305.69903 134.699351 
L 305.742516 129.614522 
L 305.786003 112.453224 
L 305.82949 118.173657 
L 305.872977 122.622882 
L 305.916463 116.266846 
L 305.95995 112.453224 
L 306.177384 151.860649 
L 306.220871 177.284794 
L 306.264357 143.597802 
L 306.307844 128.343315 
L 306.351331 151.860649 
L 306.438304 150.589442 
L 306.481791 175.377983 
L 306.525278 155.038667 
L 306.568764 174.742379 
L 306.612251 177.284794 
L 306.699225 176.64919 
L 306.786198 202.708939 
L 306.829685 205.251353 
L 306.960145 219.234633 
L 307.003632 214.785408 
L 307.134092 230.675498 
L 307.264552 211.60739 
L 307.481986 141.055387 
L 307.568959 154.403063 
L 307.612446 167.75074 
L 307.655933 160.7591 
L 307.699419 158.852289 
L 307.742906 170.293154 
L 307.786393 165.208325 
L 307.82988 157.581082 
L 307.873366 159.487892 
L 307.96034 165.208325 
L 308.003827 146.77582 
L 308.0908 156.309874 
L 308.134287 151.860649 
L 308.177773 169.021947 
L 308.22126 155.674271 
L 308.264747 149.953838 
L 308.395207 172.835569 
L 308.525667 184.276434 
L 308.569154 179.827208 
L 308.612641 175.377983 
L 308.656127 181.734019 
L 308.699614 180.462812 
L 308.873561 206.522561 
L 309.047508 226.861877 
L 309.134482 233.217913 
L 309.177968 230.039895 
L 309.351915 214.785408 
L 309.482375 192.539281 
L 309.525862 165.208325 
L 309.612836 167.75074 
L 309.786783 149.953838 
L 309.873756 172.199965 
L 309.917243 164.572721 
L 310.004216 152.496253 
L 310.047703 165.208325 
L 310.09119 142.962198 
L 310.134676 151.860649 
L 310.265137 162.030307 
L 310.308623 160.7591 
L 310.35211 158.852289 
L 310.439084 158.216685 
L 310.526057 173.471172 
L 310.569544 169.021947 
L 310.786977 193.174885 
L 310.830464 177.284794 
L 311.004411 223.048255 
L 311.265331 235.760327 
L 311.395792 213.514201 
L 311.787172 95.92753 
L 311.874146 106.097188 
L 312.004606 125.165297 
L 312.135066 92.749512 
L 312.22204 113.088828 
L 312.265526 112.453224 
L 312.309013 109.91081 
L 312.700394 167.115136 
L 312.74388 162.665911 
L 312.917827 183.005227 
L 313.265721 231.946706 
L 313.483155 214.149804 
L 313.831049 106.097188 
L 313.874535 106.097188 
L 313.961509 88.93589 
L 314.091969 139.78418 
L 314.265916 113.088828 
L 314.309403 146.140216 
L 314.396376 139.148576 
L 314.439863 137.877369 
L 314.526836 169.65755 
L 314.61381 135.334955 
L 314.657296 135.970558 
L 314.831243 169.65755 
L 314.87473 166.479532 
L 314.918217 172.199965 
L 314.961704 165.843929 
L 315.00519 168.386343 
L 315.135651 202.073335 
L 315.353084 226.861877 
L 315.440058 233.217913 
L 315.614005 206.522561 
L 315.787952 145.504613 
L 315.831438 135.334955 
L 315.961898 88.93589 
L 316.005385 106.732792 
L 316.048872 77.495025 
L 316.092359 108.003999 
L 316.179332 133.428144 
L 316.222819 123.894089 
L 316.266306 102.283566 
L 316.353279 105.461584 
L 316.396766 101.647963 
L 316.570713 150.589442 
L 316.657686 149.318234 
L 316.701173 125.8009 
L 316.74466 153.131856 
L 316.788146 144.869009 
L 316.918607 163.301514 
L 316.962093 162.665911 
L 317.13604 195.717299 
L 317.179527 189.361263 
L 317.396961 227.49748 
L 317.527421 234.48912 
L 317.701368 203.344543 
L 317.918801 123.894089 
L 318.005775 95.291926 
L 318.049262 106.732792 
L 318.092748 105.461584 
L 318.266695 128.343315 
L 318.440642 100.376755 
L 318.484129 111.817621 
L 318.527616 82.579854 
L 318.571102 108.639602 
L 318.658076 154.403063 
L 318.701563 144.233405 
L 318.745049 139.78418 
L 318.788536 151.225045 
L 318.832023 138.512973 
L 318.875509 142.326595 
L 319.00597 163.301514 
L 319.092943 174.742379 
L 319.179917 196.352903 
L 319.26689 179.827208 
L 319.484324 227.49748 
L 319.52781 228.768688 
L 319.571297 236.395931 
L 319.614784 228.133084 
L 319.701757 228.768688 
L 319.832218 183.64083 
L 320.049651 121.351675 
L 320.093138 119.444864 
L 320.180111 90.207097 
L 320.310572 134.699351 
L 320.397545 116.266846 
L 320.484519 116.90245 
L 320.528005 110.546413 
L 320.614979 111.817621 
L 320.832412 168.386343 
L 320.919386 132.156937 
L 320.962873 149.953838 
L 321.049846 161.394703 
L 321.093333 158.216685 
L 321.13682 160.7591 
L 321.26728 185.547641 
L 321.310766 176.64919 
L 321.441227 211.60739 
L 321.484713 203.980146 
L 321.615174 227.49748 
L 321.65866 224.955066 
L 321.702147 230.675498 
L 321.745634 229.404291 
L 321.876094 212.242993 
L 322.050041 175.377983 
L 322.093528 174.106776 
L 322.267475 141.690991 
L 322.354448 161.394703 
L 322.397935 141.690991 
L 322.441422 148.682631 
L 322.484908 184.912037 
L 322.528395 162.665911 
L 322.615368 144.869009 
L 322.745829 148.047027 
L 322.832802 158.852289 
L 322.876289 168.386343 
L 322.919776 153.76746 
L 322.963262 164.572721 
L 323.006749 162.030307 
L 323.137209 184.276434 
L 323.224183 176.64919 
L 323.354643 202.073335 
L 323.39813 190.63247 
L 323.441616 202.708939 
L 323.65905 227.49748 
L 323.78951 237.031535 
L 324.180891 173.471172 
L 324.224378 177.284794 
L 324.354838 138.512973 
L 324.441811 163.301514 
L 324.485298 172.835569 
L 324.528785 162.665911 
L 324.572271 149.318234 
L 324.615758 167.115136 
L 324.789705 139.148576 
L 324.963652 170.928758 
L 325.007139 150.589442 
L 325.050625 169.65755 
L 325.094112 177.920398 
L 325.137599 169.021947 
L 325.181086 177.284794 
L 325.268059 166.479532 
L 325.311546 169.65755 
L 325.355033 170.928758 
L 325.615953 209.700579 
L 325.7899 235.760327 
L 325.876873 233.853517 
L 326.442201 84.486665 
L 326.485688 92.113908 
L 326.659634 114.995639 
L 326.703121 116.266846 
L 326.833581 87.029079 
L 327.051015 138.512973 
L 327.094502 128.343315 
L 327.137989 133.428144 
L 327.268449 155.674271 
L 327.311935 158.852289 
L 327.485882 189.361263 
L 327.529369 174.106776 
L 327.572856 194.446092 
L 327.964236 235.124724 
L 328.355617 133.428144 
L 328.486077 114.360035 
L 328.529564 111.182017 
L 328.573051 76.859421 
L 328.616537 120.716071 
L 328.703511 111.182017 
L 328.746998 123.894089 
L 328.790484 122.622882 
L 328.877458 109.91081 
L 328.920945 113.088828 
L 328.964431 115.631242 
L 329.094891 148.047027 
L 329.051405 114.995639 
L 329.138378 142.962198 
L 329.268838 136.606162 
L 329.442785 174.106776 
L 329.486272 172.199965 
L 329.529759 172.835569 
L 329.660219 194.446092 
L 329.703706 184.912037 
L 329.747192 195.081695 
L 329.921139 226.226273 
L 329.964626 233.853517 
L 330.008113 231.946706 
L 330.225547 202.708939 
L 330.57344 91.478305 
L 330.616927 108.003999 
L 330.660414 106.732792 
L 330.747387 123.258486 
L 330.790874 115.631242 
L 330.834361 115.631242 
L 330.877847 88.93589 
L 330.964821 95.92753 
L 331.008308 83.215457 
L 331.051794 88.93589 
L 331.095281 92.749512 
L 331.269228 153.76746 
L 331.356202 134.063747 
L 331.486662 163.301514 
L 331.530148 162.030307 
L 331.704095 193.810488 
L 331.791069 180.462812 
L 331.965016 220.50584 
L 332.138963 230.675498 
L 332.31291 204.61575 
L 332.530343 109.275206 
L 332.57383 112.453224 
L 332.617317 117.538053 
L 332.70429 101.647963 
L 332.83475 134.063747 
L 332.878237 106.732792 
L 332.965211 111.817621 
L 333.008697 94.656323 
L 333.095671 102.91917 
L 333.269618 150.589442 
L 333.313104 146.77582 
L 333.400078 130.250126 
L 333.443565 139.148576 
L 333.660998 179.191605 
L 333.704485 166.479532 
L 333.747972 170.928758 
L 334.052379 225.590669 
L 334.095866 221.777048 
L 334.139352 224.955066 
L 334.269813 232.582309 
L 334.356786 219.234633 
L 334.661193 90.842701 
L 334.70468 116.90245 
L 334.748167 109.275206 
L 334.791653 90.842701 
L 334.83514 96.563134 
L 335.009087 128.343315 
L 335.09606 110.546413 
L 335.139547 115.631242 
L 335.183034 110.546413 
L 335.356981 156.309874 
L 335.400468 157.581082 
L 335.443954 156.945478 
L 335.487441 174.106776 
L 335.530928 163.301514 
L 335.617901 154.403063 
L 335.704875 155.038667 
L 335.965795 203.344543 
L 336.052769 193.810488 
L 336.313689 226.861877 
L 336.357176 230.675498 
L 336.618096 177.920398 
L 336.83553 140.419784 
L 336.879016 141.055387 
L 337.09645 172.835569 
L 337.139937 168.386343 
L 337.22691 179.827208 
L 337.313884 150.589442 
L 337.357371 160.123496 
L 337.400857 176.013587 
L 337.444344 159.487892 
L 337.487831 167.75074 
L 337.574804 181.098416 
L 337.661778 175.377983 
L 337.705264 173.471172 
L 337.792238 183.64083 
L 337.835725 182.369623 
L 337.879211 175.377983 
L 337.922698 180.462812 
L 338.140132 217.963426 
L 338.183618 213.514201 
L 338.270592 231.946706 
L 338.314079 228.768688 
L 338.357565 235.760327 
L 338.401052 231.946706 
L 338.444539 231.311102 
L 338.488026 232.582309 
L 338.531512 230.039895 
L 338.879406 155.038667 
L 339.009866 163.301514 
L 339.053353 153.76746 
L 339.09684 154.403063 
L 339.140327 170.293154 
L 339.2273 162.030307 
L 339.270787 174.742379 
L 339.314273 156.945478 
L 339.444734 176.64919 
L 339.48822 157.581082 
L 339.575194 165.843929 
L 339.662167 164.572721 
L 339.705654 174.742379 
L 339.792628 189.361263 
L 339.836114 172.835569 
L 339.923088 177.284794 
L 340.053548 191.903677 
L 340.097035 192.539281 
L 340.314468 227.49748 
L 340.357955 222.412651 
L 340.401442 228.768688 
L 340.444928 233.853517 
L 340.488415 228.768688 
L 340.531902 228.133084 
L 340.575389 228.768688 
L 340.662362 199.530921 
L 340.705849 169.021947 
L 340.792822 180.462812 
L 340.836309 177.920398 
L 341.010256 92.113908 
L 341.053743 102.283566 
L 341.140716 155.038667 
L 341.184203 121.987279 
L 341.35815 97.198737 
L 341.445123 101.012359 
L 341.61907 145.504613 
L 341.706044 144.869009 
L 341.74953 141.690991 
L 341.793017 146.140216 
L 342.010451 171.564361 
L 342.053938 172.835569 
L 342.097424 165.843929 
L 342.227885 233.217913 
L 342.314858 225.590669 
L 342.401831 218.59903 
L 342.532292 231.311102 
L 342.575778 233.853517 
L 342.706239 216.692219 
L 342.880185 159.487892 
L 342.923672 157.581082 
L 343.184593 99.105548 
L 343.315053 131.521333 
L 343.35854 105.461584 
L 343.402026 116.90245 
L 343.445513 130.250126 
L 343.489 98.469944 
L 343.575973 108.639602 
L 344.010841 171.564361 
L 344.054327 163.301514 
L 344.141301 167.115136 
L 344.271761 184.276434 
L 344.445708 238.938346 
L 344.489195 120.716071 
L 344.576168 130.885729 
L 344.750115 97.834341 
L 344.793602 110.546413 
L 344.924062 158.216685 
L 344.967549 151.860649 
L 345.098009 113.088828 
L 345.184982 169.021947 
L 345.228469 144.233405 
L 345.402416 185.547641 
L 345.445903 180.462812 
L 345.489389 188.090056 
L 345.532876 188.725659 
L 345.576363 192.539281 
L 345.75031 228.133084 
L 345.793797 226.861877 
L 345.88077 230.039895 
L 346.054717 207.793768 
L 346.272151 114.995639 
L 346.315637 122.622882 
L 346.359124 121.351675 
L 346.402611 106.097188 
L 346.489584 112.453224 
L 346.533071 123.894089 
L 346.576558 119.444864 
L 346.620044 115.631242 
L 346.663531 131.521333 
L 346.707018 119.444864 
L 346.837478 112.453224 
L 347.054912 164.572721 
L 347.098398 139.148576 
L 347.185372 146.140216 
L 347.228859 135.334955 
L 347.272345 150.589442 
L 347.402806 169.021947 
L 347.446292 163.937118 
L 347.837673 224.319462 
L 347.88116 224.955066 
L 347.924646 234.48912 
L 348.01162 229.404291 
L 348.098593 219.234633 
L 348.359514 123.894089 
L 348.403 123.258486 
L 348.446487 141.055387 
L 348.489974 116.266846 
L 348.533461 128.343315 
L 348.576947 124.529693 
L 348.620434 114.360035 
L 348.707408 149.953838 
L 348.750894 127.072108 
L 348.881354 102.283566 
L 349.142275 160.123496 
L 349.185762 161.394703 
L 349.229248 146.140216 
L 349.316222 146.77582 
L 349.664116 188.725659 
L 349.707602 189.361263 
L 350.01201 231.311102 
L 350.055496 231.311102 
L 350.098983 228.133084 
L 350.14247 233.217913 
L 350.185956 225.590669 
L 350.53385 166.479532 
L 350.577337 172.199965 
L 350.620824 169.65755 
L 350.707797 158.852289 
L 350.751284 164.572721 
L 350.794771 174.106776 
L 350.838257 169.65755 
L 350.881744 168.386343 
L 350.925231 181.734019 
L 350.968718 164.572721 
L 351.012204 165.208325 
L 351.055691 175.377983 
L 351.099178 174.742379 
L 351.142665 155.038667 
L 351.186151 172.835569 
L 351.229638 180.462812 
L 351.273125 168.386343 
L 351.316611 172.835569 
L 351.447072 195.081695 
L 351.490558 190.63247 
L 351.621019 180.462812 
L 351.794966 209.064975 
L 351.838452 211.60739 
L 352.012399 228.768688 
L 352.186346 234.48912 
L 352.316806 224.319462 
L 352.577727 169.65755 
L 352.621213 181.734019 
L 352.6647 170.293154 
L 352.751674 155.674271 
L 352.882134 182.369623 
L 352.925621 174.106776 
L 352.969107 169.021947 
L 353.012594 176.64919 
L 353.056081 177.284794 
L 353.099567 183.64083 
L 353.143054 165.843929 
L 353.186541 179.191605 
L 353.230028 177.920398 
L 353.317001 168.386343 
L 353.490948 191.903677 
L 353.534435 179.191605 
L 353.621408 181.734019 
L 353.664895 181.734019 
L 353.925815 229.404291 
L 353.969302 223.048255 
L 354.056276 224.955066 
L 354.143249 235.124724 
L 354.186736 233.217913 
L 354.360683 222.412651 
L 354.621603 151.225045 
L 354.708577 127.707711 
L 354.752063 128.978918 
L 354.79555 127.707711 
L 354.839037 139.148576 
L 354.882523 135.970558 
L 354.969497 216.692219 
L 355.012984 212.242993 
L 355.099957 212.878597 
L 355.186931 188.725659 
L 355.317391 212.878597 
L 355.447851 222.412651 
L 355.534824 215.421011 
L 355.621798 226.226273 
L 355.665285 225.590669 
L 355.708771 223.683859 
L 355.752258 226.226273 
L 355.795745 231.311102 
L 355.839232 224.955066 
L 355.926205 232.582309 
L 355.969692 177.284794 
L 356.013179 192.539281 
L 356.143639 227.49748 
L 356.187125 223.048255 
L 356.230612 230.039895 
L 356.317586 229.404291 
L 356.361072 231.946706 
L 356.404559 228.133084 
L 356.752453 137.877369 
L 356.79594 143.597802 
L 356.839426 145.504613 
L 356.9264 134.063747 
L 357.013373 138.512973 
L 357.05686 148.047027 
L 357.100347 122.622882 
L 357.143834 134.699351 
L 357.18732 144.869009 
L 357.230807 139.78418 
L 357.274294 139.148576 
L 357.535214 169.65755 
L 357.622188 146.140216 
L 357.796135 176.013587 
L 358.013568 200.166524 
L 358.057055 192.539281 
L 358.231002 224.319462 
L 358.274489 223.048255 
L 358.317975 224.319462 
L 358.404949 231.311102 
L 358.622382 189.996866 
L 358.839816 130.885729 
L 359.013763 150.589442 
L 359.05725 143.597802 
L 359.144223 141.055387 
L 359.18771 147.411424 
L 359.31817 128.343315 
L 359.361657 155.038667 
L 359.44863 145.504613 
L 359.579091 180.462812 
L 359.666064 183.005227 
L 359.709551 158.852289 
L 359.883498 189.361263 
L 359.970471 192.539281 
L 360.013958 186.183245 
L 360.144418 235.124724 
L 360.231391 224.319462 
L 360.274878 217.327822 
L 360.318365 227.49748 
L 360.492312 236.395931 
L 360.709746 195.081695 
L 360.927179 141.690991 
L 361.014153 166.479532 
L 361.057639 156.945478 
L 361.101126 170.928758 
L 361.1881 166.479532 
L 361.31856 171.564361 
L 361.362047 186.818848 
L 361.44902 179.191605 
L 361.492507 171.564361 
L 361.666454 197.62411 
L 361.753427 195.717299 
L 361.796914 205.886957 
L 361.840401 200.166524 
L 361.970861 218.59903 
L 362.101321 224.955066 
L 362.188294 236.395931 
L 362.231781 143.597802 
L 362.275268 169.65755 
L 362.449215 226.861877 
L 362.492702 233.217913 
L 362.536188 230.675498 
L 362.710135 223.683859 
L 363.014542 99.105548 
L 363.058029 134.699351 
L 363.101516 107.368395 
L 363.145003 113.724431 
L 363.188489 83.851061 
L 363.231976 121.351675 
L 363.275463 121.987279 
L 363.318949 139.148576 
L 363.405923 131.521333 
L 363.44941 118.173657 
L 363.492896 135.970558 
L 363.536383 120.716071 
L 363.623357 130.885729 
L 363.71033 163.937118 
L 363.753817 142.962198 
L 363.797304 167.115136 
L 363.84079 149.318234 
L 363.884277 151.225045 
L 363.927764 150.589442 
L 364.014737 186.818848 
L 364.058224 165.208325 
L 364.101711 162.665911 
L 364.188684 189.361263 
L 364.232171 188.090056 
L 364.275658 180.462812 
L 364.406118 219.870237 
L 364.449604 194.446092 
L 364.493091 211.60739 
L 364.580065 226.861877 
L 364.623551 224.955066 
L 364.667038 226.226273 
L 364.710525 231.311102 
L 364.884472 205.251353 
L 364.927959 208.429372 
L 365.014932 177.920398 
L 365.058419 186.818848 
L 365.319339 156.945478 
L 365.362826 175.377983 
L 365.449799 170.928758 
L 365.623746 154.403063 
L 365.754206 190.63247 
L 365.797693 175.377983 
L 365.884667 179.827208 
L 365.928153 189.361263 
L 366.015127 188.090056 
L 366.145587 196.988506 
L 366.189074 184.276434 
L 366.276047 189.996866 
L 366.449994 221.777048 
L 366.493481 222.412651 
L 366.580454 216.692219 
L 366.754401 235.760327 
L 366.841375 224.955066 
L 366.884861 231.311102 
L 367.102295 189.361263 
L 367.363216 155.038667 
L 367.537162 176.013587 
L 367.667623 161.394703 
L 367.754596 187.454452 
L 367.798083 175.377983 
L 367.97203 203.344543 
L 368.015517 188.090056 
L 368.10249 189.996866 
L 368.189463 201.437732 
L 368.23295 195.081695 
L 368.319924 210.336182 
L 368.36341 204.61575 
L 368.406897 201.437732 
L 368.580844 228.133084 
L 368.624331 226.226273 
L 368.754791 233.217913 
L 368.798278 232.582309 
L 368.841764 238.302742 
L 368.928738 235.760327 
L 369.059198 213.514201 
L 369.233145 181.734019 
L 369.363605 162.030307 
L 369.407092 147.411424 
L 369.450579 156.309874 
L 369.581039 179.191605 
L 369.624526 167.115136 
L 369.668012 179.191605 
L 369.841959 172.199965 
L 369.885446 170.928758 
L 370.10288 191.268074 
L 370.146366 189.361263 
L 370.23334 203.344543 
L 370.276827 195.081695 
L 370.320313 195.081695 
L 370.3638 206.522561 
L 370.407287 201.437732 
L 370.450773 194.446092 
L 370.537747 223.048255 
L 370.62472 222.412651 
L 370.972614 237.031535 
L 371.450968 116.266846 
L 371.494455 85.757872 
L 371.537942 114.360035 
L 371.581429 111.817621 
L 371.624915 140.419784 
L 371.668402 127.072108 
L 371.842349 102.283566 
L 372.103269 159.487892 
L 372.146756 160.7591 
L 372.190243 148.682631 
L 372.233729 153.76746 
L 372.407676 186.183245 
L 372.538137 174.106776 
L 372.799057 225.590669 
L 373.016491 233.217913 
L 373.103464 223.048255 
L 373.146951 226.861877 
L 373.277411 163.301514 
L 373.320898 176.013587 
L 373.364385 171.564361 
L 373.581818 95.92753 
L 373.581818 95.92753 
" style="fill:none;stroke:#1f77b4;stroke-linecap:square;stroke-width:1.5;"/>
   </g>
   <g id="patch_3">
    <path d="M 54 252 
L 54 34.56 
" style="fill:none;stroke:#000000;stroke-linecap:square;stroke-linejoin:miter;stroke-width:0.8;"/>
   </g>
   <g id="patch_4">
    <path d="M 388.8 252 
L 388.8 34.56 
" style="fill:none;stroke:#000000;stroke-linecap:square;stroke-linejoin:miter;stroke-width:0.8;"/>
   </g>
   <g id="patch_5">
    <path d="M 54 252 
L 388.8 252 
" style="fill:none;stroke:#000000;stroke-linecap:square;stroke-linejoin:miter;stroke-width:0.8;"/>
   </g>
   <g id="patch_6">
    <path d="M 54 34.56 
L 388.8 34.56 
" style="fill:none;stroke:#000000;stroke-linecap:square;stroke-linejoin:miter;stroke-width:0.8;"/>
   </g>
  </g>
 </g>
 <defs>
  <clipPath id="pcc3dbbf31d">
   <rect height="217.44" width="334.8" x="54" y="34.56"/>
  </clipPath>
 </defs>
</svg>
