<?xml version="1.0" encoding="utf-8" standalone="no"?>
<!DOCTYPE svg PUBLIC "-//W3C//DTD SVG 1.1//EN"
  "http://www.w3.org/Graphics/SVG/1.1/DTD/svg11.dtd">
<!-- Created with matplotlib (https://matplotlib.org/) -->
<svg height="288pt" version="1.1" viewBox="0 0 432 288" width="432pt" xmlns="http://www.w3.org/2000/svg" xmlns:xlink="http://www.w3.org/1999/xlink">
 <defs>
  <style type="text/css">
*{stroke-linecap:butt;stroke-linejoin:round;}
  </style>
 </defs>
 <g id="figure_1">
  <g id="patch_1">
   <path d="M 0 288 
L 432 288 
L 432 0 
L 0 0 
z
" style="fill:#ffffff;"/>
  </g>
  <g id="axes_1">
   <g id="patch_2">
    <path d="M 54 252 
L 388.8 252 
L 388.8 34.56 
L 54 34.56 
z
" style="fill:#ffffff;"/>
   </g>
   <g id="matplotlib.axis_1">
    <g id="xtick_1">
     <g id="line2d_1">
      <defs>
       <path d="M 0 0 
L 0 3.5 
" id="mf95822b812" style="stroke:#000000;stroke-width:0.8;"/>
      </defs>
      <g>
       <use style="stroke:#000000;stroke-width:0.8;" x="69.218182" xlink:href="#mf95822b812" y="252"/>
      </g>
     </g>
     <g id="text_1">
      <!-- 0 -->
      <defs>
       <path d="M 31.78125 66.40625 
Q 24.171875 66.40625 20.328125 58.90625 
Q 16.5 51.421875 16.5 36.375 
Q 16.5 21.390625 20.328125 13.890625 
Q 24.171875 6.390625 31.78125 6.390625 
Q 39.453125 6.390625 43.28125 13.890625 
Q 47.125 21.390625 47.125 36.375 
Q 47.125 51.421875 43.28125 58.90625 
Q 39.453125 66.40625 31.78125 66.40625 
z
M 31.78125 74.21875 
Q 44.046875 74.21875 50.515625 64.515625 
Q 56.984375 54.828125 56.984375 36.375 
Q 56.984375 17.96875 50.515625 8.265625 
Q 44.046875 -1.421875 31.78125 -1.421875 
Q 19.53125 -1.421875 13.0625 8.265625 
Q 6.59375 17.96875 6.59375 36.375 
Q 6.59375 54.828125 13.0625 64.515625 
Q 19.53125 74.21875 31.78125 74.21875 
z
" id="DejaVuSans-48"/>
      </defs>
      <g transform="translate(66.036932 266.598437)scale(0.1 -0.1)">
       <use xlink:href="#DejaVuSans-48"/>
      </g>
     </g>
    </g>
    <g id="xtick_2">
     <g id="line2d_2">
      <g>
       <use style="stroke:#000000;stroke-width:0.8;" x="120.115111" xlink:href="#mf95822b812" y="252"/>
      </g>
     </g>
     <g id="text_2">
      <!-- 50 -->
      <defs>
       <path d="M 10.796875 72.90625 
L 49.515625 72.90625 
L 49.515625 64.59375 
L 19.828125 64.59375 
L 19.828125 46.734375 
Q 21.96875 47.46875 24.109375 47.828125 
Q 26.265625 48.1875 28.421875 48.1875 
Q 40.625 48.1875 47.75 41.5 
Q 54.890625 34.8125 54.890625 23.390625 
Q 54.890625 11.625 47.5625 5.09375 
Q 40.234375 -1.421875 26.90625 -1.421875 
Q 22.3125 -1.421875 17.546875 -0.640625 
Q 12.796875 0.140625 7.71875 1.703125 
L 7.71875 11.625 
Q 12.109375 9.234375 16.796875 8.0625 
Q 21.484375 6.890625 26.703125 6.890625 
Q 35.15625 6.890625 40.078125 11.328125 
Q 45.015625 15.765625 45.015625 23.390625 
Q 45.015625 31 40.078125 35.4375 
Q 35.15625 39.890625 26.703125 39.890625 
Q 22.75 39.890625 18.8125 39.015625 
Q 14.890625 38.140625 10.796875 36.28125 
z
" id="DejaVuSans-53"/>
      </defs>
      <g transform="translate(113.752611 266.598437)scale(0.1 -0.1)">
       <use xlink:href="#DejaVuSans-53"/>
       <use x="63.623047" xlink:href="#DejaVuSans-48"/>
      </g>
     </g>
    </g>
    <g id="xtick_3">
     <g id="line2d_3">
      <g>
       <use style="stroke:#000000;stroke-width:0.8;" x="171.01204" xlink:href="#mf95822b812" y="252"/>
      </g>
     </g>
     <g id="text_3">
      <!-- 100 -->
      <defs>
       <path d="M 12.40625 8.296875 
L 28.515625 8.296875 
L 28.515625 63.921875 
L 10.984375 60.40625 
L 10.984375 69.390625 
L 28.421875 72.90625 
L 38.28125 72.90625 
L 38.28125 8.296875 
L 54.390625 8.296875 
L 54.390625 0 
L 12.40625 0 
z
" id="DejaVuSans-49"/>
      </defs>
      <g transform="translate(161.46829 266.598437)scale(0.1 -0.1)">
       <use xlink:href="#DejaVuSans-49"/>
       <use x="63.623047" xlink:href="#DejaVuSans-48"/>
       <use x="127.246094" xlink:href="#DejaVuSans-48"/>
      </g>
     </g>
    </g>
    <g id="xtick_4">
     <g id="line2d_4">
      <g>
       <use style="stroke:#000000;stroke-width:0.8;" x="221.908969" xlink:href="#mf95822b812" y="252"/>
      </g>
     </g>
     <g id="text_4">
      <!-- 150 -->
      <g transform="translate(212.365219 266.598437)scale(0.1 -0.1)">
       <use xlink:href="#DejaVuSans-49"/>
       <use x="63.623047" xlink:href="#DejaVuSans-53"/>
       <use x="127.246094" xlink:href="#DejaVuSans-48"/>
      </g>
     </g>
    </g>
    <g id="xtick_5">
     <g id="line2d_5">
      <g>
       <use style="stroke:#000000;stroke-width:0.8;" x="272.805898" xlink:href="#mf95822b812" y="252"/>
      </g>
     </g>
     <g id="text_5">
      <!-- 200 -->
      <defs>
       <path d="M 19.1875 8.296875 
L 53.609375 8.296875 
L 53.609375 0 
L 7.328125 0 
L 7.328125 8.296875 
Q 12.9375 14.109375 22.625 23.890625 
Q 32.328125 33.6875 34.8125 36.53125 
Q 39.546875 41.84375 41.421875 45.53125 
Q 43.3125 49.21875 43.3125 52.78125 
Q 43.3125 58.59375 39.234375 62.25 
Q 35.15625 65.921875 28.609375 65.921875 
Q 23.96875 65.921875 18.8125 64.3125 
Q 13.671875 62.703125 7.8125 59.421875 
L 7.8125 69.390625 
Q 13.765625 71.78125 18.9375 73 
Q 24.125 74.21875 28.421875 74.21875 
Q 39.75 74.21875 46.484375 68.546875 
Q 53.21875 62.890625 53.21875 53.421875 
Q 53.21875 48.921875 51.53125 44.890625 
Q 49.859375 40.875 45.40625 35.40625 
Q 44.1875 33.984375 37.640625 27.21875 
Q 31.109375 20.453125 19.1875 8.296875 
z
" id="DejaVuSans-50"/>
      </defs>
      <g transform="translate(263.262148 266.598437)scale(0.1 -0.1)">
       <use xlink:href="#DejaVuSans-50"/>
       <use x="63.623047" xlink:href="#DejaVuSans-48"/>
       <use x="127.246094" xlink:href="#DejaVuSans-48"/>
      </g>
     </g>
    </g>
    <g id="xtick_6">
     <g id="line2d_6">
      <g>
       <use style="stroke:#000000;stroke-width:0.8;" x="323.702828" xlink:href="#mf95822b812" y="252"/>
      </g>
     </g>
     <g id="text_6">
      <!-- 250 -->
      <g transform="translate(314.159078 266.598437)scale(0.1 -0.1)">
       <use xlink:href="#DejaVuSans-50"/>
       <use x="63.623047" xlink:href="#DejaVuSans-53"/>
       <use x="127.246094" xlink:href="#DejaVuSans-48"/>
      </g>
     </g>
    </g>
    <g id="xtick_7">
     <g id="line2d_7">
      <g>
       <use style="stroke:#000000;stroke-width:0.8;" x="374.599757" xlink:href="#mf95822b812" y="252"/>
      </g>
     </g>
     <g id="text_7">
      <!-- 300 -->
      <defs>
       <path d="M 40.578125 39.3125 
Q 47.65625 37.796875 51.625 33 
Q 55.609375 28.21875 55.609375 21.1875 
Q 55.609375 10.40625 48.1875 4.484375 
Q 40.765625 -1.421875 27.09375 -1.421875 
Q 22.515625 -1.421875 17.65625 -0.515625 
Q 12.796875 0.390625 7.625 2.203125 
L 7.625 11.71875 
Q 11.71875 9.328125 16.59375 8.109375 
Q 21.484375 6.890625 26.8125 6.890625 
Q 36.078125 6.890625 40.9375 10.546875 
Q 45.796875 14.203125 45.796875 21.1875 
Q 45.796875 27.640625 41.28125 31.265625 
Q 36.765625 34.90625 28.71875 34.90625 
L 20.21875 34.90625 
L 20.21875 43.015625 
L 29.109375 43.015625 
Q 36.375 43.015625 40.234375 45.921875 
Q 44.09375 48.828125 44.09375 54.296875 
Q 44.09375 59.90625 40.109375 62.90625 
Q 36.140625 65.921875 28.71875 65.921875 
Q 24.65625 65.921875 20.015625 65.03125 
Q 15.375 64.15625 9.8125 62.3125 
L 9.8125 71.09375 
Q 15.4375 72.65625 20.34375 73.4375 
Q 25.25 74.21875 29.59375 74.21875 
Q 40.828125 74.21875 47.359375 69.109375 
Q 53.90625 64.015625 53.90625 55.328125 
Q 53.90625 49.265625 50.4375 45.09375 
Q 46.96875 40.921875 40.578125 39.3125 
z
" id="DejaVuSans-51"/>
      </defs>
      <g transform="translate(365.056007 266.598437)scale(0.1 -0.1)">
       <use xlink:href="#DejaVuSans-51"/>
       <use x="63.623047" xlink:href="#DejaVuSans-48"/>
       <use x="127.246094" xlink:href="#DejaVuSans-48"/>
      </g>
     </g>
    </g>
   </g>
   <g id="matplotlib.axis_2">
    <g id="ytick_1">
     <g id="line2d_8">
      <defs>
       <path d="M 0 0 
L -3.5 0 
" id="m92edde8a9d" style="stroke:#000000;stroke-width:0.8;"/>
      </defs>
      <g>
       <use style="stroke:#000000;stroke-width:0.8;" x="54" xlink:href="#m92edde8a9d" y="244.77587"/>
      </g>
     </g>
     <g id="text_8">
      <!-- −80 -->
      <defs>
       <path d="M 10.59375 35.5 
L 73.1875 35.5 
L 73.1875 27.203125 
L 10.59375 27.203125 
z
" id="DejaVuSans-8722"/>
       <path d="M 31.78125 34.625 
Q 24.75 34.625 20.71875 30.859375 
Q 16.703125 27.09375 16.703125 20.515625 
Q 16.703125 13.921875 20.71875 10.15625 
Q 24.75 6.390625 31.78125 6.390625 
Q 38.8125 6.390625 42.859375 10.171875 
Q 46.921875 13.96875 46.921875 20.515625 
Q 46.921875 27.09375 42.890625 30.859375 
Q 38.875 34.625 31.78125 34.625 
z
M 21.921875 38.8125 
Q 15.578125 40.375 12.03125 44.71875 
Q 8.5 49.078125 8.5 55.328125 
Q 8.5 64.0625 14.71875 69.140625 
Q 20.953125 74.21875 31.78125 74.21875 
Q 42.671875 74.21875 48.875 69.140625 
Q 55.078125 64.0625 55.078125 55.328125 
Q 55.078125 49.078125 51.53125 44.71875 
Q 48 40.375 41.703125 38.8125 
Q 48.828125 37.15625 52.796875 32.3125 
Q 56.78125 27.484375 56.78125 20.515625 
Q 56.78125 9.90625 50.3125 4.234375 
Q 43.84375 -1.421875 31.78125 -1.421875 
Q 19.734375 -1.421875 13.25 4.234375 
Q 6.78125 9.90625 6.78125 20.515625 
Q 6.78125 27.484375 10.78125 32.3125 
Q 14.796875 37.15625 21.921875 38.8125 
z
M 18.3125 54.390625 
Q 18.3125 48.734375 21.84375 45.5625 
Q 25.390625 42.390625 31.78125 42.390625 
Q 38.140625 42.390625 41.71875 45.5625 
Q 45.3125 48.734375 45.3125 54.390625 
Q 45.3125 60.0625 41.71875 63.234375 
Q 38.140625 66.40625 31.78125 66.40625 
Q 25.390625 66.40625 21.84375 63.234375 
Q 18.3125 60.0625 18.3125 54.390625 
z
" id="DejaVuSans-56"/>
      </defs>
      <g transform="translate(25.895312 248.575089)scale(0.1 -0.1)">
       <use xlink:href="#DejaVuSans-8722"/>
       <use x="83.789062" xlink:href="#DejaVuSans-56"/>
       <use x="147.412109" xlink:href="#DejaVuSans-48"/>
      </g>
     </g>
    </g>
    <g id="ytick_2">
     <g id="line2d_9">
      <g>
       <use style="stroke:#000000;stroke-width:0.8;" x="54" xlink:href="#m92edde8a9d" y="212.585302"/>
      </g>
     </g>
     <g id="text_9">
      <!-- −60 -->
      <defs>
       <path d="M 33.015625 40.375 
Q 26.375 40.375 22.484375 35.828125 
Q 18.609375 31.296875 18.609375 23.390625 
Q 18.609375 15.53125 22.484375 10.953125 
Q 26.375 6.390625 33.015625 6.390625 
Q 39.65625 6.390625 43.53125 10.953125 
Q 47.40625 15.53125 47.40625 23.390625 
Q 47.40625 31.296875 43.53125 35.828125 
Q 39.65625 40.375 33.015625 40.375 
z
M 52.59375 71.296875 
L 52.59375 62.3125 
Q 48.875 64.0625 45.09375 64.984375 
Q 41.3125 65.921875 37.59375 65.921875 
Q 27.828125 65.921875 22.671875 59.328125 
Q 17.53125 52.734375 16.796875 39.40625 
Q 19.671875 43.65625 24.015625 45.921875 
Q 28.375 48.1875 33.59375 48.1875 
Q 44.578125 48.1875 50.953125 41.515625 
Q 57.328125 34.859375 57.328125 23.390625 
Q 57.328125 12.15625 50.6875 5.359375 
Q 44.046875 -1.421875 33.015625 -1.421875 
Q 20.359375 -1.421875 13.671875 8.265625 
Q 6.984375 17.96875 6.984375 36.375 
Q 6.984375 53.65625 15.1875 63.9375 
Q 23.390625 74.21875 37.203125 74.21875 
Q 40.921875 74.21875 44.703125 73.484375 
Q 48.484375 72.75 52.59375 71.296875 
z
" id="DejaVuSans-54"/>
      </defs>
      <g transform="translate(25.895312 216.38452)scale(0.1 -0.1)">
       <use xlink:href="#DejaVuSans-8722"/>
       <use x="83.789062" xlink:href="#DejaVuSans-54"/>
       <use x="147.412109" xlink:href="#DejaVuSans-48"/>
      </g>
     </g>
    </g>
    <g id="ytick_3">
     <g id="line2d_10">
      <g>
       <use style="stroke:#000000;stroke-width:0.8;" x="54" xlink:href="#m92edde8a9d" y="180.394733"/>
      </g>
     </g>
     <g id="text_10">
      <!-- −40 -->
      <defs>
       <path d="M 37.796875 64.3125 
L 12.890625 25.390625 
L 37.796875 25.390625 
z
M 35.203125 72.90625 
L 47.609375 72.90625 
L 47.609375 25.390625 
L 58.015625 25.390625 
L 58.015625 17.1875 
L 47.609375 17.1875 
L 47.609375 0 
L 37.796875 0 
L 37.796875 17.1875 
L 4.890625 17.1875 
L 4.890625 26.703125 
z
" id="DejaVuSans-52"/>
      </defs>
      <g transform="translate(25.895312 184.193952)scale(0.1 -0.1)">
       <use xlink:href="#DejaVuSans-8722"/>
       <use x="83.789062" xlink:href="#DejaVuSans-52"/>
       <use x="147.412109" xlink:href="#DejaVuSans-48"/>
      </g>
     </g>
    </g>
    <g id="ytick_4">
     <g id="line2d_11">
      <g>
       <use style="stroke:#000000;stroke-width:0.8;" x="54" xlink:href="#m92edde8a9d" y="148.204165"/>
      </g>
     </g>
     <g id="text_11">
      <!-- −20 -->
      <g transform="translate(25.895312 152.003383)scale(0.1 -0.1)">
       <use xlink:href="#DejaVuSans-8722"/>
       <use x="83.789062" xlink:href="#DejaVuSans-50"/>
       <use x="147.412109" xlink:href="#DejaVuSans-48"/>
      </g>
     </g>
    </g>
    <g id="ytick_5">
     <g id="line2d_12">
      <g>
       <use style="stroke:#000000;stroke-width:0.8;" x="54" xlink:href="#m92edde8a9d" y="116.013596"/>
      </g>
     </g>
     <g id="text_12">
      <!-- 0 -->
      <g transform="translate(40.6375 119.812815)scale(0.1 -0.1)">
       <use xlink:href="#DejaVuSans-48"/>
      </g>
     </g>
    </g>
    <g id="ytick_6">
     <g id="line2d_13">
      <g>
       <use style="stroke:#000000;stroke-width:0.8;" x="54" xlink:href="#m92edde8a9d" y="83.823027"/>
      </g>
     </g>
     <g id="text_13">
      <!-- 20 -->
      <g transform="translate(34.275 87.622246)scale(0.1 -0.1)">
       <use xlink:href="#DejaVuSans-50"/>
       <use x="63.623047" xlink:href="#DejaVuSans-48"/>
      </g>
     </g>
    </g>
    <g id="ytick_7">
     <g id="line2d_14">
      <g>
       <use style="stroke:#000000;stroke-width:0.8;" x="54" xlink:href="#m92edde8a9d" y="51.632459"/>
      </g>
     </g>
     <g id="text_14">
      <!-- 40 -->
      <g transform="translate(34.275 55.431678)scale(0.1 -0.1)">
       <use xlink:href="#DejaVuSans-52"/>
       <use x="63.623047" xlink:href="#DejaVuSans-48"/>
      </g>
     </g>
    </g>
   </g>
   <g id="line2d_15">
    <path clip-path="url(#p6f1b95a9da)" d="M 69.218182 146.380944 
L 70.23612 158.909926 
L 71.254059 127.581197 
L 72.271998 132.645701 
L 73.289936 149.721767 
L 74.307875 128.563084 
L 75.325813 141.924287 
L 76.343752 141.769145 
L 77.36169 102.548089 
L 78.379629 88.233193 
L 79.397568 124.89933 
L 80.415506 135.395795 
L 81.433445 134.628607 
L 82.451383 98.97012 
L 83.469322 82.471054 
L 85.505199 103.063174 
L 86.523138 168.639915 
L 87.541076 130.822431 
L 88.559015 104.969479 
L 90.594892 116.489534 
L 91.612831 136.214804 
L 92.630769 120.10875 
L 93.648708 125.119272 
L 94.666646 98.439894 
L 95.684585 89.427704 
L 96.702524 118.828859 
L 97.720462 108.664977 
L 98.738401 76.691189 
L 99.756339 105.843315 
L 100.774278 242.116364 
L 101.792216 135.0875 
L 102.810155 153.264714 
L 103.828094 148.015769 
L 104.846032 134.652798 
L 105.863971 84.615291 
L 106.881909 96.736634 
L 107.899848 135.852748 
L 108.917787 122.262577 
L 109.935725 122.829213 
L 110.953664 123.201215 
L 111.971602 90.4502 
L 114.007479 115.067148 
L 115.025418 109.785834 
L 116.043357 83.843829 
L 117.061295 119.854105 
L 118.079234 92.637932 
L 119.097172 115.379643 
L 120.115111 110.097309 
L 121.13305 101.820908 
L 122.150988 98.887699 
L 123.168927 94.17038 
L 124.186865 102.852037 
L 125.204804 124.902473 
L 126.222742 102.116543 
L 127.240681 102.274472 
L 128.25862 108.729421 
L 129.276558 120.499116 
L 130.294497 105.54006 
L 131.312435 113.880472 
L 132.330374 111.440509 
L 133.348313 113.873092 
L 134.366251 117.272913 
L 135.38419 105.828916 
L 136.402128 116.185868 
L 137.420067 121.454498 
L 138.438005 131.874964 
L 139.455944 107.933634 
L 140.473883 108.034082 
L 141.491821 126.492305 
L 142.50976 167.90824 
L 143.527698 153.158347 
L 144.545637 101.57298 
L 145.563576 139.638564 
L 146.581514 107.456861 
L 147.599453 68.929855 
L 148.617391 111.773234 
L 149.63533 124.883464 
L 150.653268 119.07061 
L 151.671207 140.754005 
L 152.689146 142.445267 
L 153.707084 150.22332 
L 154.725023 116.140446 
L 155.742961 120.38093 
L 156.7609 136.669546 
L 157.778839 104.255217 
L 158.796777 159.672497 
L 159.814716 135.271205 
L 160.832654 97.993907 
L 161.850593 133.793782 
L 162.868531 145.897958 
L 163.88647 153.418014 
L 164.904409 133.18316 
L 165.922347 100.883326 
L 166.940286 133.114197 
L 167.958224 124.239761 
L 168.976163 110.125884 
L 169.994102 101.360038 
L 171.01204 120.387966 
L 172.029979 120.351975 
L 173.047917 92.162559 
L 174.065856 130.110981 
L 175.083794 102.532144 
L 176.101733 122.290986 
L 177.119672 132.809169 
L 178.13761 114.57521 
L 179.155549 98.93687 
L 180.173487 112.534961 
L 181.191426 115.20427 
L 182.209365 112.502696 
L 183.227303 116.579019 
L 184.245242 111.535394 
L 185.26318 125.720113 
L 187.299057 90.708013 
L 188.316996 107.568496 
L 189.334935 99.77432 
L 190.352873 82.815844 
L 191.370812 78.762159 
L 192.38875 90.311586 
L 193.406689 125.740368 
L 194.424628 99.899033 
L 195.442566 97.208692 
L 196.460505 100.803066 
L 197.478443 130.348066 
L 198.496382 99.437339 
L 199.51432 101.179415 
L 200.532259 138.127076 
L 201.550198 128.003546 
L 202.568136 97.641847 
L 203.586075 104.490644 
L 204.604013 151.867969 
L 205.621952 115.735288 
L 206.639891 119.554799 
L 207.657829 98.7664 
L 208.675768 96.539962 
L 209.693706 117.157625 
L 210.711645 115.1939 
L 211.729583 109.0825 
L 212.747522 132.07015 
L 213.765461 86.0099 
L 214.783399 78.027279 
L 215.801338 130.494096 
L 216.819276 118.37737 
L 217.837215 107.69483 
L 218.855154 124.641639 
L 219.873092 129.420701 
L 220.891031 97.063398 
L 221.908969 130.20955 
L 222.926908 136.089968 
L 223.944846 140.922286 
L 224.962785 125.158487 
L 226.998662 112.017889 
L 228.016601 110.378601 
L 229.034539 105.212919 
L 230.052478 105.738688 
L 231.070417 121.735037 
L 232.088355 109.782347 
L 233.106294 108.034941 
L 234.124232 129.938125 
L 235.142171 116.125108 
L 236.160109 93.698765 
L 237.178048 57.754308 
L 238.195987 49.705868 
L 239.213925 88.314104 
L 240.231864 96.755508 
L 241.249802 116.89474 
L 242.267741 140.977962 
L 243.28568 161.948495 
L 244.303618 143.911761 
L 245.321557 93.801264 
L 246.339495 141.818215 
L 247.357434 195.645983 
L 248.375372 108.730441 
L 249.393311 93.649781 
L 250.41125 177.810317 
L 251.429188 202.037802 
L 252.447127 111.871005 
L 253.465065 63.261557 
L 254.483004 74.042961 
L 255.500943 103.736889 
L 256.518881 123.217375 
L 257.53682 78.945385 
L 258.554758 100.817139 
L 259.572697 112.928793 
L 260.590635 106.545042 
L 261.608574 69.150448 
L 262.626513 97.014991 
L 263.644451 140.679553 
L 264.66239 101.291738 
L 265.680328 113.959185 
L 266.698267 79.531484 
L 267.716206 90.727488 
L 268.734144 107.780395 
L 269.752083 113.245414 
L 270.770021 141.229255 
L 271.78796 162.245597 
L 272.805898 158.872104 
L 273.823837 123.736445 
L 274.841776 112.339931 
L 275.859714 127.960426 
L 276.877653 114.594744 
L 277.895591 121.132895 
L 278.91353 114.34048 
L 279.931469 113.078376 
L 280.949407 108.646008 
L 281.967346 113.871698 
L 282.985284 97.144315 
L 284.003223 96.292268 
L 285.021161 90.718045 
L 286.0391 78.234966 
L 287.057039 86.753056 
L 288.074977 139.561152 
L 289.092916 114.83516 
L 290.110854 96.515329 
L 291.128793 96.569434 
L 292.146732 58.654228 
L 293.16467 79.048154 
L 294.182609 129.472742 
L 295.200547 160.90101 
L 296.218486 129.41461 
L 297.236424 75.082612 
L 298.254363 134.974723 
L 299.272302 119.398478 
L 301.308179 133.514713 
L 302.326117 116.151767 
L 303.344056 105.687966 
L 304.361995 115.260566 
L 305.379933 84.843375 
L 306.397872 73.094328 
L 307.41581 86.099591 
L 308.433749 119.822104 
L 309.451687 128.983493 
L 310.469626 152.086572 
L 311.487565 131.635718 
L 312.505503 146.691769 
L 314.54138 113.20941 
L 315.559319 131.822149 
L 316.577258 138.286639 
L 317.595196 122.602922 
L 318.613135 110.168176 
L 319.631073 102.539432 
L 320.649012 44.443636 
L 321.66695 92.198207 
L 322.684889 109.849946 
L 323.702828 134.610644 
L 325.738705 109.661671 
L 326.756643 124.45947 
L 327.774582 96.765295 
L 328.792521 114.712092 
L 329.810459 116.743792 
L 330.828398 109.559757 
L 331.846336 111.64419 
L 332.864275 116.540749 
L 333.882213 131.067553 
L 334.900152 114.988423 
L 335.918091 121.458489 
L 336.936029 129.585666 
L 337.953968 107.88616 
L 338.971906 152.466311 
L 339.989845 91.34748 
L 341.007784 78.923539 
L 342.025722 98.084727 
L 343.043661 108.429784 
L 344.061599 90.902438 
L 345.079538 150.257274 
L 346.097476 129.640888 
L 347.115415 100.402722 
L 348.133354 116.693549 
L 349.151292 146.388582 
L 351.187169 128.649583 
L 352.205108 95.99085 
L 353.223047 96.785422 
L 354.240985 123.047596 
L 355.258924 123.049254 
L 356.276862 123.754147 
L 357.294801 83.522555 
L 358.312739 93.305875 
L 359.330678 157.749405 
L 360.348617 161.336216 
L 361.366555 136.203985 
L 362.384494 126.049817 
L 363.402432 140.030704 
L 364.420371 110.850744 
L 365.43831 149.058613 
L 366.456248 128.511681 
L 367.474187 98.273663 
L 368.492125 133.937184 
L 369.510064 108.247012 
L 370.528002 88.868338 
L 371.545941 91.171603 
L 372.56388 93.787578 
L 373.581818 219.655158 
L 373.581818 219.655158 
" style="fill:none;stroke:#1f77b4;stroke-linecap:square;stroke-width:1.5;"/>
   </g>
   <g id="patch_3">
    <path d="M 54 252 
L 54 34.56 
" style="fill:none;stroke:#000000;stroke-linecap:square;stroke-linejoin:miter;stroke-width:0.8;"/>
   </g>
   <g id="patch_4">
    <path d="M 388.8 252 
L 388.8 34.56 
" style="fill:none;stroke:#000000;stroke-linecap:square;stroke-linejoin:miter;stroke-width:0.8;"/>
   </g>
   <g id="patch_5">
    <path d="M 54 252 
L 388.8 252 
" style="fill:none;stroke:#000000;stroke-linecap:square;stroke-linejoin:miter;stroke-width:0.8;"/>
   </g>
   <g id="patch_6">
    <path d="M 54 34.56 
L 388.8 34.56 
" style="fill:none;stroke:#000000;stroke-linecap:square;stroke-linejoin:miter;stroke-width:0.8;"/>
   </g>
  </g>
 </g>
 <defs>
  <clipPath id="p6f1b95a9da">
   <rect height="217.44" width="334.8" x="54" y="34.56"/>
  </clipPath>
 </defs>
</svg>
